<svg width="490" height="245" viewBox="0 0 490 245" fill="none" xmlns="http://www.w3.org/2000/svg">
<path fill-rule="evenodd" clip-rule="evenodd" d="M265.811 2.63266C321.03 10.0083 334.46 44.9167 376.412 63.8747C410.73 79.3824 473.885 81.0826 487.618 102.866C501.36 124.663 451.639 143.384 440.5 165.53C427.911 190.559 461.209 224.901 418.553 240.181C375.976 255.432 318.578 229.758 265.811 228.104C218.341 226.617 171.286 239.138 126.729 231.035C74.1284 221.47 7.7706 206.94 0.479283 179.856C-7.07007 151.813 76.8045 137.786 94.3677 110.825C112.172 83.4941 64.0948 49.6724 100.078 26.9644C136.19 4.17523 208.769 -4.98648 265.811 2.63266Z" fill="#C4C4C4"/>
</svg>
