<svg width="542" height="272" viewBox="0 0 542 272" fill="none" xmlns="http://www.w3.org/2000/svg">
<path fill-rule="evenodd" clip-rule="evenodd" d="M246.676 0.00709474C317.449 0.600424 344.048 41.7702 396.868 62.366C442.198 80.041 512.033 87.1517 533.755 111.946C555.766 137.069 525.45 164.031 508.608 189.907C491.025 216.921 489.119 250.965 433.914 265.342C378.741 279.711 309.429 264.102 246.676 258.124C197.818 253.468 151.987 246.834 110.641 234.542C68.037 221.876 23.2668 208.113 6.71951 186.786C-9.92053 165.341 7.8107 142.594 22.4419 120.87C37.5101 98.4972 58.6289 77.9274 92.2377 59.8121C136.643 35.8775 176.183 -0.583879 246.676 0.00709474Z" fill="#C4C4C4"/>
</svg>
