<svg width="635" height="447" viewBox="0 0 635 447" fill="none" xmlns="http://www.w3.org/2000/svg">
<g clip-path="url(#clip0)">
<path opacity="0.1" d="M550.275 447C570.43 447 586.77 442.665 586.77 437.318C586.77 431.971 570.43 427.636 550.275 427.636C530.119 427.636 513.78 431.971 513.78 437.318C513.78 442.665 530.119 447 550.275 447Z" fill="#FCBF49"/>
<path opacity="0.1" d="M610.463 395.987C596.578 407.498 576.819 412.262 557.711 415.27L554.495 415.761C534.536 418.735 514.356 420.319 494.107 421.282C483.272 421.807 472.438 422.177 461.604 422.508L453.113 422.758C442.088 423.085 431.043 423.406 419.977 423.721C409.142 424.029 398.308 424.318 387.473 424.588C373.598 424.926 359.722 425.207 345.846 425.431C335.012 425.602 324.177 425.72 313.343 425.784C299.464 425.864 285.588 425.837 271.716 425.705C260.874 425.594 250.04 425.404 239.213 425.135C225.329 424.778 211.454 424.255 197.586 423.568C188.173 423.108 178.766 422.555 169.365 421.909L165.082 421.607C124.727 418.701 83.6475 413.487 48.3329 397.007L47.3807 396.556C46.9074 396.334 46.4341 396.112 45.9608 395.878C39.4768 392.78 33.2658 389.141 27.394 385C16.953 377.557 8.3311 368.474 3.77494 357.698C-3.36438 340.796 0.410561 321.797 8.56489 305.271C16.7192 288.746 28.9621 273.827 39.5514 258.264C42.6534 253.705 45.5958 248.975 48.3329 244.126C65.4399 213.713 73.925 178.518 55.9912 149.211C53.624 145.474 51.068 141.86 48.3329 138.384C43.9593 132.685 39.5114 126.986 36.5063 120.678C29.4981 105.999 31.0036 89.49 33.5582 73.8076C36.9796 52.9566 43.2522 30.4986 62.8568 17.4718C83.197 3.9434 112.068 4.62722 137.312 9.49379C176.561 17.0102 212.788 32.7439 249.357 46.9333C285.926 61.1227 324.234 74.0983 364.442 75.4944C373.079 75.7898 381.726 75.4756 390.319 74.5541V74.5541C401.774 73.3777 413.074 70.9997 424.031 67.4594C439.855 62.251 454.253 54.4155 464.928 43.5255C487.823 20.247 530.847 18.4861 561.868 32.5444C591.468 45.9588 610.611 74.349 609.197 102.705C607.589 134.269 583.936 160.22 562.261 186.838C559.632 190.064 557.038 193.301 554.512 196.56C553.101 198.38 551.718 200.203 550.36 202.031C547.982 205.256 545.684 208.499 543.518 211.781C532.444 228.609 524.614 248.821 532.238 266.988C536.515 277.16 544.675 284.922 554.512 291.697C576.551 306.873 606.973 317.084 620.659 338.329C632.451 356.638 628.083 381.353 610.463 395.987Z" fill="#FCBF49"/>
<g opacity="0.1">
<path opacity="0.1" d="M316.764 313.05C316.787 313.586 316.827 314.11 316.884 314.623C321.321 312.856 325.675 310.957 329.948 308.924C332.229 308.622 334.348 307.586 335.987 305.972C337.236 305.345 338.479 304.69 339.711 304.035C339.432 303.445 339.116 302.874 338.764 302.325C336.363 298.536 332.714 296.165 328.694 296.296C324.674 296.427 321.195 299.031 319.045 302.958C317.396 306.058 316.608 309.543 316.764 313.05V313.05Z" fill="#434149"/>
<path opacity="0.1" d="M316.109 293.122C316.195 296.614 317.208 300.02 319.045 302.992C321.452 306.77 325.101 309.141 329.121 309.01C329.401 309.01 329.692 308.97 329.948 308.947C332.228 308.645 334.348 307.608 335.987 305.995C337.099 304.938 338.036 303.71 338.764 302.359C340.373 299.257 341.158 295.794 341.044 292.302C340.93 288.81 339.921 285.405 338.114 282.414C335.707 278.625 332.058 276.254 328.038 276.385C324.018 276.516 320.545 279.121 318.395 283.047C316.747 286.141 315.958 289.62 316.109 293.122V293.122Z" fill="#434149"/>
<path opacity="0.1" d="M328.464 289.083C335.347 288.857 340.688 281.374 340.392 272.368C340.096 263.362 334.276 256.245 327.392 256.471C320.509 256.697 315.168 264.18 315.464 273.186C315.759 282.191 321.58 289.309 328.464 289.083Z" fill="#434149"/>
<path opacity="0.1" d="M327.81 269.159C334.694 268.933 340.034 261.45 339.738 252.444C339.443 243.438 333.622 236.321 326.739 236.547C319.855 236.773 314.514 244.256 314.81 253.262C315.106 262.267 320.926 269.385 327.81 269.159Z" fill="#434149"/>
<path opacity="0.1" d="M327.156 249.229C334.04 249.003 339.38 241.52 339.085 232.514C338.789 223.508 332.968 216.391 326.085 216.617C319.201 216.843 313.86 224.326 314.156 233.332C314.452 242.337 320.272 249.455 327.156 249.229Z" fill="#434149"/>
<path opacity="0.1" d="M368.821 95.0348C370.453 92.8132 371.927 90.4806 373.235 88.054L340.309 83.7573L375.732 82.857C378.887 75.36 380.478 67.2984 380.408 59.1657C380.337 51.0329 378.606 43.0001 375.322 35.559L328.614 61.7438L371.381 28.1224C367.027 21.2001 361.297 15.2456 354.545 10.628C347.793 6.01033 340.164 2.82811 332.13 1.27862C324.097 -0.270869 315.831 -0.154588 307.844 1.62025C299.858 3.39509 292.321 6.79065 285.702 11.5964C279.083 16.4021 273.522 22.5155 269.365 29.5574C265.207 36.5994 262.542 44.4198 261.534 52.5337C260.525 60.6476 261.196 68.882 263.504 76.7262C265.811 84.5704 269.707 91.8572 274.949 98.1348C272.408 101.594 270.246 105.315 268.5 109.236L311.729 129.91L265.905 116.199C263.032 125.705 262.576 135.776 264.578 145.503C266.581 155.229 270.978 164.302 277.373 171.903C270.739 180.931 266.781 191.643 265.951 202.813C265.122 213.984 267.455 225.162 272.683 235.07C277.911 244.978 285.823 253.216 295.515 258.842C305.208 264.467 316.288 267.254 327.491 266.884C338.693 266.513 349.565 262.999 358.863 256.745C368.162 250.49 375.512 241.747 380.072 231.516C384.633 221.284 386.22 209.976 384.653 198.884C383.086 187.793 378.428 177.367 371.21 168.797C379.143 158.013 383.219 144.879 382.786 131.503C382.353 118.126 377.435 105.283 368.821 95.0348V95.0348Z" fill="#FCBF49"/>
<path opacity="0.1" d="M263.385 135.415C263.801 148.8 268.731 161.651 277.373 171.885C270.737 180.913 266.777 191.624 265.945 202.794C265.114 213.964 267.445 225.143 272.671 235.052C277.897 244.961 285.808 253.2 295.499 258.828C305.19 264.456 316.271 267.245 327.473 266.876C338.676 266.507 349.548 262.996 358.848 256.743C368.147 250.49 375.499 241.748 380.061 231.517C384.624 221.286 386.213 209.978 384.648 198.887C383.083 187.796 378.426 177.368 371.21 168.797C378.88 158.391 263.168 128.719 263.385 135.415Z" fill="#434149"/>
</g>
<g opacity="0.1">
<path opacity="0.1" d="M185.999 418.023C185.999 418.399 185.959 418.775 185.913 419.163C182.758 417.909 179.658 416.566 176.613 415.134C174.99 414.922 173.481 414.188 172.313 413.042C171.423 412.59 170.54 412.131 169.661 411.663C169.86 411.247 170.084 410.843 170.334 410.455C172.045 407.754 174.634 406.067 177.496 406.159C180.359 406.25 182.834 408.096 184.339 410.888C185.518 413.077 186.091 415.539 185.999 418.023V418.023Z" fill="#434149"/>
<path opacity="0.1" d="M186.443 403.839C186.387 406.324 185.671 408.749 184.368 410.866C182.657 413.555 180.062 415.248 177.206 415.157L176.635 415.111C175.013 414.899 173.504 414.165 172.336 413.02C171.543 412.268 170.875 411.395 170.357 410.432C169.213 408.227 168.654 405.766 168.732 403.283C168.81 400.8 169.522 398.378 170.802 396.249C172.513 393.548 175.107 391.861 177.964 391.952C180.821 392.043 183.301 393.89 184.835 396.682C186 398.882 186.555 401.353 186.443 403.839Z" fill="#434149"/>
<path opacity="0.1" d="M186.904 389.682C187.107 383.274 183.3 377.954 178.403 377.799C173.505 377.645 169.37 382.714 169.167 389.121C168.965 395.529 172.771 400.849 177.669 401.004C182.567 401.158 186.701 396.089 186.904 389.682Z" fill="#434149"/>
<path opacity="0.1" d="M187.347 375.5C187.55 369.093 183.744 363.773 178.846 363.618C173.948 363.463 169.813 368.532 169.61 374.94C169.408 381.348 173.214 386.668 178.112 386.822C183.01 386.977 187.145 381.908 187.347 375.5Z" fill="#434149"/>
<path opacity="0.1" d="M187.796 361.313C187.999 354.906 184.192 349.586 179.295 349.431C174.397 349.277 170.262 354.346 170.059 360.753C169.857 367.161 173.663 372.481 178.561 372.636C183.459 372.79 187.593 367.721 187.796 361.313Z" fill="#434149"/>
<path opacity="0.1" d="M148.779 262.92C147.617 261.339 146.563 259.68 145.626 257.956L169.051 254.845L143.841 254.275C141.588 248.942 140.448 243.205 140.491 237.416C140.535 231.627 141.76 225.907 144.092 220.608L177.354 239.202L146.892 215.297C149.975 210.348 154.044 206.086 158.846 202.777C163.648 199.467 169.08 197.181 174.805 196.06C180.529 194.939 186.423 195.008 192.12 196.262C197.817 197.516 203.194 199.928 207.918 203.349C212.641 206.769 216.61 211.125 219.576 216.144C222.542 221.164 224.443 226.74 225.16 232.525C225.877 238.31 225.394 244.181 223.743 249.772C222.091 255.363 219.305 260.554 215.559 265.022C217.374 267.482 218.916 270.13 220.161 272.921L189.414 287.668L222.014 277.867C224.066 284.631 224.399 291.799 222.984 298.724C221.568 305.648 218.448 312.111 213.906 317.529C218.637 323.947 221.465 331.566 222.067 339.514C222.669 347.463 221.021 355.421 217.311 362.477C213.601 369.534 207.979 375.405 201.088 379.419C194.196 383.434 186.314 385.429 178.341 385.177C170.368 384.926 162.627 382.437 156.003 377.996C149.379 373.555 144.139 367.341 140.882 360.064C137.626 352.788 136.483 344.742 137.586 336.847C138.69 328.953 141.993 321.527 147.12 315.42C141.467 307.751 138.557 298.406 138.858 288.886C139.159 279.365 142.653 270.222 148.779 262.925V262.92Z" fill="#FCBF49"/>
<path opacity="0.1" d="M223.822 291.561C223.536 301.086 220.042 310.235 213.906 317.529C218.637 323.947 221.465 331.566 222.067 339.515C222.669 347.463 221.021 355.421 217.311 362.477C213.601 369.534 207.979 375.405 201.088 379.419C194.196 383.434 186.314 385.429 178.341 385.177C170.368 384.926 162.627 382.437 156.003 377.996C149.379 373.555 144.139 367.341 140.882 360.065C137.626 352.788 136.483 344.742 137.586 336.847C138.69 328.953 141.993 321.527 147.12 315.42C141.652 308.012 223.982 286.791 223.822 291.561Z" fill="#434149"/>
</g>
<g opacity="0.1">
<path opacity="0.1" d="M482.959 343.913C482.959 344.295 482.919 344.665 482.879 345.053C479.72 343.799 476.62 342.456 473.578 341.024C471.955 340.811 470.444 340.077 469.273 338.933C468.389 338.483 467.5 338.021 466.622 337.554C466.822 337.138 467.047 336.735 467.295 336.346C469.005 333.645 471.594 331.958 474.457 332.049C477.319 332.14 479.794 333.986 481.299 336.779C482.478 338.967 483.051 341.43 482.959 343.913V343.913Z" fill="#434149"/>
<path opacity="0.1" d="M483.438 329.73C483.38 332.215 482.662 334.64 481.356 336.756C479.646 339.446 477.057 341.138 474.194 341.047L473.624 341.001C472 340.788 470.489 340.055 469.319 338.91C468.528 338.156 467.86 337.283 467.34 336.323C466.196 334.117 465.637 331.656 465.715 329.173C465.793 326.69 466.505 324.269 467.785 322.139C469.496 319.444 472.09 317.751 474.947 317.842C477.804 317.934 480.29 319.78 481.818 322.572C482.987 324.771 483.546 327.242 483.438 329.73V329.73Z" fill="#434149"/>
<path opacity="0.1" d="M483.883 315.568C484.086 309.16 480.28 303.84 475.382 303.685C470.484 303.531 466.349 308.6 466.147 315.007C465.944 321.415 469.75 326.735 474.648 326.89C479.546 327.044 483.681 321.975 483.883 315.568Z" fill="#434149"/>
<path opacity="0.1" d="M484.332 301.386C484.535 294.979 480.729 289.659 475.831 289.504C470.933 289.349 466.798 294.418 466.596 300.826C466.393 307.234 470.199 312.554 475.097 312.708C479.995 312.863 484.13 307.794 484.332 301.386Z" fill="#434149"/>
<path opacity="0.1" d="M484.781 287.205C484.984 280.797 481.177 275.478 476.28 275.323C471.382 275.168 467.247 280.237 467.044 286.645C466.842 293.053 470.648 298.373 475.546 298.527C480.444 298.682 484.578 293.613 484.781 287.205Z" fill="#434149"/>
<path opacity="0.1" d="M445.74 188.81C444.576 187.231 443.524 185.573 442.592 183.847L466.017 180.764L440.807 180.154C438.555 174.82 437.415 169.084 437.458 163.295C437.5 157.506 438.723 151.787 441.052 146.487L474.314 165.081L443.852 141.187C446.93 136.226 450.997 131.952 455.8 128.632C460.604 125.311 466.041 123.015 471.772 121.888C477.502 120.76 483.404 120.825 489.109 122.078C494.814 123.331 500.199 125.745 504.928 129.17C509.658 132.595 513.63 136.957 516.598 141.984C519.566 147.011 521.465 152.596 522.178 158.389C522.89 164.183 522.4 170.061 520.738 175.656C519.077 181.252 516.279 186.446 512.52 190.913C514.332 193.372 515.873 196.021 517.116 198.811L486.369 213.559L518.969 203.757C521.024 210.52 521.359 217.688 519.943 224.612C518.527 231.537 515.405 237.999 510.86 243.414C515.592 249.831 518.421 257.449 519.024 265.397C519.627 273.345 517.98 281.302 514.27 288.358C510.561 295.415 504.94 301.286 498.049 305.3C491.158 309.314 483.276 311.31 475.304 311.058C467.332 310.806 459.591 308.317 452.968 303.877C446.344 299.436 441.105 293.222 437.849 285.945C434.593 278.669 433.452 270.623 434.556 262.729C435.66 254.835 438.964 247.411 444.092 241.305C438.438 233.636 435.529 224.291 435.83 214.771C436.131 205.25 439.625 196.107 445.751 188.81H445.74Z" fill="#FCBF49"/>
<path opacity="0.1" d="M520.788 217.451C520.502 226.975 517.006 236.124 510.866 243.414C515.597 249.831 518.425 257.449 519.027 265.396C519.63 273.344 517.982 281.301 514.272 288.357C510.563 295.413 504.942 301.283 498.051 305.297C491.16 309.311 483.279 311.306 475.307 311.054C467.335 310.803 459.595 308.314 452.972 303.874C446.348 299.433 441.109 293.22 437.853 285.944C434.597 278.668 433.455 270.623 434.558 262.729C435.661 254.835 438.965 247.411 444.092 241.305C438.617 233.903 520.936 212.676 520.788 217.451Z" fill="#434149"/>
</g>
<path d="M110.34 434.144C128.294 434.144 142.849 431.348 142.849 427.898C142.849 424.449 128.294 421.653 110.34 421.653C92.3859 421.653 77.8311 424.449 77.8311 427.898C77.8311 431.348 92.3859 434.144 110.34 434.144Z" fill="#FCBF49"/>
<path d="M109.798 430.195C111.89 430.195 113.585 427.978 113.585 425.243C113.585 422.508 111.89 420.291 109.798 420.291C107.707 420.291 106.012 422.508 106.012 425.243C106.012 427.978 107.707 430.195 109.798 430.195Z" fill="#434149"/>
<path d="M109.798 424.143C111.89 424.143 113.585 421.926 113.585 419.191C113.585 416.456 111.89 414.239 109.798 414.239C107.707 414.239 106.012 416.456 106.012 419.191C106.012 421.926 107.707 424.143 109.798 424.143Z" fill="#434149"/>
<path d="M109.798 418.091C111.89 418.091 113.585 415.874 113.585 413.139C113.585 410.404 111.89 408.187 109.798 408.187C107.707 408.187 106.012 410.404 106.012 413.139C106.012 415.874 107.707 418.091 109.798 418.091Z" fill="#434149"/>
<path d="M109.798 412.039C111.89 412.039 113.585 409.822 113.585 407.087C113.585 404.352 111.89 402.135 109.798 402.135C107.707 402.135 106.012 404.352 106.012 407.087C106.012 409.822 107.707 412.039 109.798 412.039Z" fill="#434149"/>
<path d="M109.798 405.988C111.89 405.988 113.585 403.77 113.585 401.036C113.585 398.301 111.89 396.083 109.798 396.083C107.707 396.083 106.012 398.301 106.012 401.036C106.012 403.77 107.707 405.988 109.798 405.988Z" fill="#434149"/>
<path d="M109.798 399.936C111.89 399.936 113.585 397.719 113.585 394.984C113.585 392.249 111.89 390.032 109.798 390.032C107.707 390.032 106.012 392.249 106.012 394.984C106.012 397.719 107.707 399.936 109.798 399.936Z" fill="#434149"/>
<path d="M109.798 393.884C111.89 393.884 113.585 391.667 113.585 388.932C113.585 386.197 111.89 383.98 109.798 383.98C107.707 383.98 106.012 386.197 106.012 388.932C106.012 391.667 107.707 393.884 109.798 393.884Z" fill="#434149"/>
<path d="M123.969 347.515C124.485 346.856 124.955 346.163 125.377 345.441L115.432 343.805L126.187 343.891C127.218 341.646 127.781 339.215 127.841 336.746C127.901 334.277 127.456 331.822 126.535 329.53L112.102 337.012L125.411 327.217C124.163 325.065 122.486 323.193 120.483 321.717C118.479 320.241 116.194 319.193 113.768 318.639C111.342 318.084 108.828 318.034 106.382 318.492C103.936 318.95 101.61 319.907 99.55 321.302C97.4898 322.697 95.7391 324.501 94.4067 326.601C93.0743 328.702 92.1889 331.054 91.8055 333.511C91.4221 335.969 91.5489 338.479 92.1781 340.885C92.8073 343.291 93.9254 345.542 95.4627 347.498C94.6585 348.523 93.9665 349.631 93.3985 350.803L106.309 357.504L92.5431 352.889C91.5761 355.744 91.3367 358.795 91.8464 361.766C92.3562 364.737 93.5991 367.534 95.4627 369.904C93.3598 372.578 92.052 375.788 91.6888 379.169C91.3255 382.55 91.9214 385.965 93.4084 389.023C94.8955 392.082 97.2136 394.66 100.098 396.464C102.982 398.268 106.316 399.225 109.719 399.225C113.121 399.225 116.455 398.268 119.339 396.464C122.223 394.66 124.542 392.082 126.029 389.023C127.516 385.965 128.112 382.55 127.748 379.169C127.385 375.788 126.077 372.578 123.974 369.904C126.486 366.71 127.852 362.764 127.852 358.701C127.852 354.638 126.486 350.693 123.974 347.498L123.969 347.515Z" fill="#FCBF49"/>
<path opacity="0.1" d="M91.5851 358.718C91.5784 362.782 92.9447 366.73 95.4627 369.921C93.3598 372.595 92.052 375.805 91.6888 379.186C91.3255 382.567 91.9214 385.982 93.4084 389.04C94.8955 392.099 97.2136 394.677 100.098 396.481C102.982 398.285 106.316 399.242 109.719 399.242C113.121 399.242 116.455 398.285 119.339 396.481C122.223 394.677 124.542 392.099 126.029 389.04C127.516 385.982 128.112 382.567 127.748 379.186C127.385 375.805 126.077 372.595 123.974 369.921C126.398 366.838 91.5851 356.684 91.5851 358.718Z" fill="#434149"/>
<path d="M197.586 294.735V423.522C188.173 423.062 178.766 422.51 169.365 421.864L165.082 421.562V294.735C165.082 294.075 165.213 293.421 165.465 292.811C165.718 292.202 166.089 291.647 166.556 291.181C167.023 290.714 167.577 290.344 168.187 290.091C168.797 289.839 169.451 289.709 170.112 289.709H192.556C193.217 289.709 193.871 289.839 194.481 290.091C195.091 290.344 195.646 290.714 196.113 291.181C196.58 291.647 196.95 292.202 197.203 292.811C197.456 293.421 197.586 294.075 197.586 294.735Z" fill="#FCBF49"/>
<path d="M239.213 425.123V208.687C239.213 207.354 239.743 206.075 240.686 205.133C241.629 204.19 242.908 203.661 244.242 203.661H266.687C267.347 203.661 268.001 203.791 268.611 204.043C269.221 204.296 269.776 204.666 270.243 205.133C270.71 205.599 271.08 206.153 271.333 206.763C271.586 207.373 271.716 208.027 271.716 208.687V425.687L239.213 425.123Z" fill="#FCBF49"/>
<path d="M313.343 425.801V253.705C313.343 252.372 313.873 251.094 314.816 250.151C315.759 249.209 317.039 248.679 318.372 248.679H340.817C342.151 248.679 343.43 249.209 344.373 250.151C345.316 251.094 345.846 252.372 345.846 253.705V425.431L313.343 425.801Z" fill="#FCBF49"/>
<path d="M419.977 126.058V423.721C409.142 424.029 398.308 424.318 387.473 424.588V126.058C387.473 124.725 388.003 123.446 388.946 122.504C389.89 121.561 391.169 121.031 392.503 121.031H414.947C416.281 121.031 417.56 121.561 418.504 122.504C419.447 123.446 419.977 124.725 419.977 126.058Z" fill="#FCBF49"/>
<path d="M494.107 185.892V421.243C483.272 421.767 472.438 422.137 461.604 422.468V185.892C461.604 184.559 462.133 183.281 463.077 182.338C464.02 181.396 465.299 180.866 466.633 180.866H489.077C490.411 180.866 491.691 181.396 492.634 182.338C493.577 183.281 494.107 184.559 494.107 185.892Z" fill="#FCBF49"/>
<path d="M181.619 219.628L255.749 136.999L329.88 178.598L404.01 50.9507L478.14 111.925" stroke="#F8F8F8" stroke-width="7" stroke-miterlimit="10" stroke-linecap="round"/>
<path d="M181.334 235.584C190.152 235.584 197.301 228.44 197.301 219.628C197.301 210.816 190.152 203.672 181.334 203.672C172.516 203.672 165.368 210.816 165.368 219.628C165.368 228.44 172.516 235.584 181.334 235.584Z" fill="#FCBF49"/>
<path d="M255.464 152.955C264.282 152.955 271.431 145.811 271.431 136.999C271.431 128.187 264.282 121.043 255.464 121.043C246.646 121.043 239.498 128.187 239.498 136.999C239.498 145.811 246.646 152.955 255.464 152.955Z" fill="#FCBF49"/>
<path d="M329.595 194.554C338.413 194.554 345.561 187.411 345.561 178.598C345.561 169.786 338.413 162.642 329.595 162.642C320.777 162.642 313.628 169.786 313.628 178.598C313.628 187.411 320.777 194.554 329.595 194.554Z" fill="#FCBF49"/>
<path d="M403.725 66.9066C412.543 66.9066 419.692 59.7629 419.692 50.9507C419.692 42.1385 412.543 34.9948 403.725 34.9948C394.907 34.9948 387.758 42.1385 387.758 50.9507C387.758 59.7629 394.907 66.9066 403.725 66.9066Z" fill="#FCBF49"/>
<path d="M546.283 202.532C555.101 202.532 562.25 195.389 562.25 186.576C562.25 177.764 555.101 170.62 546.283 170.62C537.465 170.62 530.317 177.764 530.317 186.576C530.317 195.389 537.465 202.532 546.283 202.532Z" fill="#FCBF49"/>
<path opacity="0.1" d="M133.252 413.584C139.135 413.584 143.904 412.778 143.904 411.783C143.904 410.788 139.135 409.982 133.252 409.982C127.369 409.982 122.6 410.788 122.6 411.783C122.6 412.778 127.369 413.584 133.252 413.584Z" fill="#FCBF49"/>
<path d="M126.101 403.423C126.101 403.423 132.174 403.235 134.005 401.93C135.835 400.625 143.351 399.081 143.807 401.161C144.263 403.241 152.931 411.555 146.088 411.612C139.245 411.669 130.15 410.541 128.325 409.429C126.5 408.318 126.101 403.423 126.101 403.423Z" fill="#BCBCBC"/>
<path opacity="0.2" d="M146.196 410.883C139.354 410.94 130.264 409.817 128.434 408.706C127.042 407.857 126.489 404.819 126.301 403.417H126.101C126.101 403.417 126.483 408.313 128.314 409.424C130.144 410.535 139.217 411.663 146.077 411.606C148.055 411.606 148.74 410.888 148.7 409.846C148.426 410.478 147.673 410.871 146.196 410.883Z" fill="#434149"/>
<path opacity="0.1" d="M606.614 430.36C617.419 430.36 626.179 428.881 626.179 427.055C626.179 425.23 617.419 423.75 606.614 423.75C595.809 423.75 587.049 425.23 587.049 427.055C587.049 428.881 595.809 430.36 606.614 430.36Z" fill="#FCBF49"/>
<path d="M593.493 411.698C593.493 411.698 604.652 411.356 608.017 408.962C611.381 406.569 625.181 403.714 626.013 407.549C626.846 411.384 642.789 426.639 630.187 426.742C617.585 426.844 600.912 424.781 597.553 422.753C594.194 420.724 593.493 411.698 593.493 411.698Z" fill="#BCBCBC"/>
<path opacity="0.2" d="M630.398 425.408C617.796 425.511 601.122 423.448 597.764 421.419C595.209 419.863 594.188 414.279 593.846 411.732H593.476C593.476 411.732 594.183 420.73 597.536 422.77C600.889 424.81 617.574 426.878 630.17 426.759C633.808 426.759 635.063 425.437 634.994 423.522C634.487 424.662 633.101 425.385 630.398 425.408Z" fill="#434149"/>
<path d="M484.47 196.361C484.576 197.359 484.972 198.304 485.61 199.079C486.437 200.013 487.675 200.441 488.787 200.999C491.664 202.471 493.862 204.996 494.922 208.048C496.821 213.587 497.066 219.445 499.484 224.791C501.902 230.136 504.742 235.27 506.829 240.747C508.015 243.852 508.961 247.083 510.701 249.91C511.543 251.3 512.617 252.535 513.877 253.563C513.746 255.569 513.694 257.552 513.706 259.558C514.091 259.55 514.472 259.64 514.813 259.819C515.154 259.999 515.444 260.262 515.656 260.583C516.078 261.233 516.369 261.959 516.511 262.72C517.293 265.951 516.329 269.393 517.03 272.641C518.957 281.677 518.365 291.067 515.32 299.789C514.538 302 513.558 309.317 514.39 311.511C517.492 311.198 520.241 313.101 523.143 314.361C523.378 316.08 523.238 317.829 522.733 319.489C521.689 322.492 521.695 325.758 521.712 328.932L521.854 352.444C521.854 355.424 521.894 358.445 522.641 361.334C523.491 364.588 525.276 367.904 525.219 371.266C525.065 378.503 528.486 385.399 528.213 392.579C528.161 393.958 527.973 395.326 527.842 396.693C527.505 400.337 527.597 404.007 528.116 407.629C529.153 414.843 531.896 421.938 531.212 429.192C531.166 429.682 531.001 430.332 530.539 430.52C531.109 431.164 531.714 431.802 532.33 432.412C532.205 432.619 532.035 432.797 531.833 432.93C531.16 433.282 530.415 433.477 529.655 433.5C528.764 433.523 527.898 433.805 527.163 434.309C526.629 434.822 526.267 435.486 526.125 436.213C525.923 436.93 525.879 437.683 525.997 438.419C526.115 439.156 526.393 439.857 526.81 440.475C527.319 441.116 527.985 441.614 528.743 441.923C531.377 443.062 534.4 442.236 537.148 441.404L547.914 438.144C548.571 438.008 549.177 437.693 549.665 437.233C549.888 436.969 550.036 436.65 550.092 436.31C552.47 436.879 555.082 436.178 557.505 435.455L568.271 432.189C568.929 432.056 569.536 431.74 570.022 431.278C570.216 431.042 570.356 430.767 570.431 430.472C570.507 430.176 570.517 429.868 570.461 429.568C570.541 429.534 570.621 429.511 570.701 429.471C571.522 429.101 572.411 428.377 572.212 427.505C572.069 426.935 571.499 426.605 571.254 426.081C571.138 425.74 571.115 425.375 571.185 425.022C571.255 424.669 571.416 424.34 571.653 424.069C572.075 423.499 572.645 423.026 573.033 422.428C574.276 420.525 573.432 418.023 572.964 415.795C571.955 411.036 572.89 406.067 572.252 401.246C572.035 399.622 571.641 398.027 571.328 396.414C570.663 392.602 570.223 388.755 570.011 384.891C569.6 379.375 568.066 373.939 568.944 368.468C569.371 365.258 569.552 362.019 569.486 358.781C569.548 356.718 569.458 354.653 569.218 352.603C568.996 351.076 568.602 349.578 568.431 348.045C568.292 346.322 568.262 344.592 568.34 342.865C568.418 339.015 568.063 335.169 567.279 331.399C566.139 326.219 563.995 321.261 563.082 316.07C563.39 316.138 563.698 316.207 563.995 316.287C564.029 312.298 560.533 303.624 559.239 299.841C559.049 299.377 558.934 298.887 558.897 298.387C558.975 297.729 559.095 297.076 559.256 296.433C559.421 295.054 558.686 293.743 558.486 292.364C558.408 291.394 558.48 290.418 558.697 289.469C559.615 284.369 560.756 279.309 561.896 274.254C562.393 272.423 562.565 270.52 562.404 268.63C562.271 267.628 562.355 266.61 562.65 265.643C562.946 264.677 563.445 263.785 564.114 263.028C564.615 262.566 565.042 262.03 565.38 261.438C565.57 260.93 565.655 260.39 565.631 259.848C565.609 257.504 565.263 255.174 564.605 252.924C565.608 251.107 565.979 248.873 566.27 246.764C566.909 242.109 567.547 237.43 567.524 232.729C567.575 230.221 567.229 227.721 566.498 225.321C565.964 223.839 565.312 222.402 564.548 221.024C561.548 215.251 558.68 209.177 554.894 203.888C553.753 202.281 554.472 200.065 554.552 198.082C554.637 195.688 553.691 193.392 552.761 191.192C552.287 189.838 551.559 188.587 550.617 187.505C550.298 187.155 549.911 186.873 549.48 186.677C549.049 186.481 548.582 186.375 548.108 186.365C547.571 186.431 547.054 186.611 546.593 186.893C546.132 187.175 545.736 187.553 545.434 188.001C544.744 188.94 544.247 190.006 543.972 191.137C543.697 192.269 543.649 193.444 543.831 194.594C544.21 196.897 545.214 199.051 546.734 200.823C547.468 201.714 548.308 202.512 549.237 203.199C550.18 206.193 551.13 209.184 552.088 212.174C553.594 216.932 555.099 221.713 557.22 226.215C557.842 227.52 558.526 228.848 558.6 230.29C558.68 231.846 558.03 233.327 557.511 234.792C556.418 237.844 555.799 241.046 555.675 244.285C555.508 244.359 555.348 244.447 555.196 244.548C553.4 245.721 552.835 248.28 550.965 249.329C549.876 249.938 548.553 249.899 547.332 250.178C547.224 250.178 547.116 250.235 547.002 250.269C546.956 250.041 546.91 249.819 546.882 249.585C546.864 249.439 546.864 249.292 546.882 249.146C549.79 247.549 552.232 245.224 553.97 242.399C554.336 241.876 554.619 241.299 554.808 240.69C554.962 239.959 554.991 239.208 554.894 238.467C554.798 235.996 554.445 233.542 553.839 231.145C553.23 228.736 551.899 226.57 550.024 224.939C549.089 224.187 548.011 223.622 547.082 222.865C545.268 221.4 544.025 219.235 541.949 218.146C540.629 217.503 539.122 217.352 537.699 217.72C536.277 218.087 535.032 218.95 534.189 220.152C533.912 220.708 533.524 221.201 533.048 221.6C532.685 221.771 532.331 221.961 531.987 222.169C531.36 222.671 531.326 223.634 531.531 224.415C531.92 226.019 532.138 227.66 532.181 229.31C530.341 231.468 529.327 234.209 529.321 237.045C529.315 239.88 530.316 242.626 532.147 244.793C532.147 245.853 532.147 246.912 532.107 247.972C532.107 248.172 532.107 248.377 532.067 248.576C531.41 248.347 530.821 247.955 530.357 247.437C529.718 246.639 529.604 245.465 528.823 244.81C528.261 244.44 527.62 244.205 526.952 244.126C525.292 243.749 523.734 243.012 522.39 241.966C521.336 241.151 520.241 240.108 519.009 239.869C516.884 235.885 514.403 232.101 511.596 228.563C510.884 227.726 510.236 226.836 509.657 225.902C508.431 223.765 508.066 221.252 507.291 218.91C505.124 212.345 499.718 207.08 498.401 200.287C497.922 197.825 496.359 195.683 495.287 193.414C494.563 191.882 493.765 190.263 492.316 189.386C490.452 188.246 487.874 188.77 486.323 190.303C485.572 191.105 485.015 192.067 484.694 193.117C484.373 194.167 484.296 195.277 484.47 196.361ZM552.174 426.975C551.5 427.327 550.755 427.522 549.995 427.545C549.612 427.585 549.231 427.646 548.855 427.727C548.712 426.531 548.633 425.317 548.541 424.137C548.239 420.268 547.635 416.427 547.036 412.592C546.409 408.603 546.112 404.238 544.755 400.409C542.571 394.174 540.358 387.752 540.638 381.148C540.701 379.649 540.889 378.162 540.969 376.668C541.151 372.97 540.632 369.192 541.539 365.596C541.944 363.961 542.634 362.399 542.896 360.735C543.063 359.233 543.082 357.717 542.953 356.211C542.704 350.981 543.139 345.742 544.247 340.625C545.308 342.01 545.656 343.799 545.958 345.514L548.097 357.105C549.368 363.984 550.492 371.278 553.862 377.398C553.388 379.603 552.921 381.957 553.702 384.065C554.038 384.977 554.592 385.775 554.934 386.698C555.504 388.231 555.424 389.918 555.595 391.542C555.966 394.961 557.38 398.323 556.342 401.622C555.275 405.025 554.581 408.533 554.272 412.085C554.215 413.073 554.101 414.057 553.93 415.031C553.748 415.909 553.451 416.741 553.286 417.641C553.058 418.905 553.114 420.203 553.451 421.442C553.707 422.129 553.864 422.848 553.919 423.579C553.919 424.308 553.023 424.833 552.305 424.947C552.516 425.22 552.744 425.482 552.978 425.739C552.84 426.222 552.56 426.653 552.174 426.975Z" fill="url(#paint0_linear)"/>
<path d="M529.655 433.551C528.764 433.575 527.898 433.856 527.163 434.361C526.627 434.867 526.264 435.529 526.125 436.253C525.923 436.964 525.88 437.712 525.998 438.443C526.116 439.173 526.393 439.869 526.81 440.481C527.319 441.12 527.985 441.616 528.743 441.923C531.377 443.062 534.4 442.23 537.148 441.404L547.914 438.167C548.57 438.033 549.176 437.719 549.665 437.261C549.961 436.862 550.125 436.38 550.133 435.884C550.141 435.387 549.993 434.9 549.71 434.492C549.132 433.687 548.343 433.058 547.429 432.674C544.082 431.044 540.307 430.674 536.629 430.605C535.261 430.605 533.909 430.275 532.98 431.329C532.489 431.899 532.58 432.509 531.839 432.993C531.162 433.339 530.416 433.529 529.655 433.551V433.551Z" fill="#434149"/>
<path d="M549.995 427.636C549.104 427.662 548.24 427.943 547.503 428.446C546.969 428.953 546.606 429.614 546.466 430.338C546.264 431.05 546.22 431.799 546.338 432.53C546.457 433.262 546.734 433.958 547.15 434.572C547.661 435.207 548.327 435.701 549.083 436.008C551.723 437.147 554.74 436.321 557.488 435.495L568.254 432.252C568.911 432.118 569.517 431.804 570.005 431.346C570.301 430.948 570.464 430.467 570.472 429.972C570.481 429.476 570.333 428.99 570.05 428.582C569.471 427.779 568.682 427.15 567.77 426.765C564.417 425.135 560.642 424.759 556.964 424.69C555.595 424.69 554.249 424.365 553.314 425.42C552.824 425.99 552.915 426.594 552.174 427.078C551.5 427.428 550.755 427.619 549.995 427.636V427.636Z" fill="#434149"/>
<path d="M540.638 310.873C546.982 310.236 553.365 310.057 559.735 310.337C560.155 310.333 560.573 310.399 560.972 310.531C562.375 311.101 562.592 312.936 562.723 314.435C563.293 320.521 565.95 326.191 567.285 332.151C568.068 335.898 568.424 339.722 568.345 343.549C568.268 345.258 568.299 346.971 568.437 348.677C568.608 350.199 569.007 351.692 569.224 353.208C569.464 355.244 569.554 357.295 569.492 359.345C569.557 362.559 569.376 365.772 568.95 368.958C568.072 374.389 569.606 379.786 570.016 385.279C570.221 389.121 570.653 392.948 571.311 396.739C571.624 398.34 572.018 399.924 572.234 401.537C572.873 406.33 571.938 411.264 572.947 415.994C573.415 418.205 574.259 420.69 573.016 422.582C572.628 423.152 572.058 423.636 571.636 424.212C571.399 424.48 571.237 424.807 571.167 425.158C571.097 425.509 571.121 425.873 571.237 426.212C571.482 426.73 572.052 427.072 572.195 427.625C572.417 428.497 571.505 429.209 570.683 429.58C564.496 432.372 556.519 430.406 552.345 425.055C553.063 424.941 553.941 424.422 553.958 423.693C553.904 422.968 553.746 422.254 553.491 421.573C553.155 420.344 553.099 419.055 553.326 417.801C553.491 416.923 553.787 416.091 553.97 415.208C554.141 414.239 554.255 413.261 554.312 412.279C554.62 408.749 555.315 405.264 556.382 401.885C557.42 398.608 556.006 395.291 555.635 391.872C555.464 390.254 555.538 388.584 554.973 387.057C554.631 386.157 554.078 385.347 553.742 384.447C552.961 382.344 553.428 380.008 553.901 377.82C550.531 371.739 549.408 364.491 548.136 357.658L545.998 346.147C545.679 344.438 545.331 342.665 544.287 341.286C543.179 346.368 542.744 351.574 542.993 356.769C543.122 358.266 543.103 359.772 542.936 361.265C542.674 362.918 541.984 364.474 541.579 366.092C540.695 369.665 541.214 373.415 541.009 377.09C540.929 378.578 540.74 380.054 540.678 381.541C540.398 388.106 542.611 394.488 544.795 400.682C546.135 404.483 546.431 408.803 547.076 412.78C547.646 416.593 548.279 420.405 548.581 424.251C548.861 427.785 548.986 431.608 551.187 434.383C549.174 435.688 547.099 437.016 544.744 437.466C541.999 437.895 539.191 437.351 536.806 435.928C534.434 434.511 532.315 432.71 530.533 430.6C530.995 430.44 531.161 429.768 531.206 429.283C531.89 422.069 529.148 415.037 528.11 407.857C527.591 404.26 527.499 400.614 527.836 396.995C527.967 395.633 528.155 394.271 528.207 392.904C528.48 385.775 525.042 378.908 525.167 371.773C525.224 368.428 523.457 365.135 522.59 361.904C521.843 359.054 521.82 356.034 521.803 353.071L521.661 329.707C521.661 326.55 521.661 323.313 522.681 320.333C523.936 316.743 522.499 312.623 522.282 308.827C528.208 310.704 534.444 311.399 540.638 310.873V310.873Z" fill="#2F3037"/>
<path d="M520.309 243.744C517.912 238.848 514.985 234.229 511.579 229.971C510.867 229.139 510.219 228.255 509.64 227.327C508.414 225.201 508.049 222.705 507.274 220.38C505.107 213.861 499.701 208.624 498.384 201.883C497.905 199.432 496.342 197.324 495.27 195.044C494.546 193.523 493.748 191.916 492.299 191.055C490.435 189.916 487.857 190.44 486.306 191.967C485.56 192.762 485.006 193.717 484.688 194.76C484.37 195.802 484.295 196.903 484.47 197.979C484.577 198.972 484.973 199.911 485.61 200.68C486.437 201.609 487.675 202.031 488.787 202.589C491.66 204.045 493.858 206.554 494.922 209.593C496.821 215.092 497.066 220.916 499.484 226.227C501.902 231.538 504.742 236.632 506.829 242.063C508.015 245.146 508.961 248.332 510.701 251.181C512.44 254.03 515.154 256.418 518.433 256.845C518.411 254.78 518.725 252.724 519.362 250.759C520.075 248.514 521.341 245.87 520.309 243.744Z" fill="#A0616A"/>
<path d="M555.612 248.007C555.466 243.977 556.095 239.957 557.465 236.165C557.99 234.712 558.606 233.236 558.555 231.692C558.48 230.256 557.796 228.939 557.175 227.64C555.031 223.167 553.525 218.425 552.043 213.696L549.191 204.777C548.262 204.096 547.421 203.302 546.688 202.412C545.168 200.656 544.164 198.515 543.786 196.224C543.604 195.082 543.652 193.915 543.927 192.791C544.202 191.668 544.699 190.611 545.388 189.682C545.692 189.236 546.088 188.859 546.549 188.578C547.01 188.297 547.526 188.118 548.062 188.052C548.536 188.063 549.002 188.169 549.434 188.365C549.865 188.561 550.252 188.842 550.571 189.192C551.512 190.264 552.24 191.506 552.715 192.85C553.645 195.039 554.591 197.318 554.506 199.689C554.426 201.66 553.691 203.86 554.848 205.461C558.634 210.715 561.503 216.75 564.502 222.488C565.267 223.856 565.919 225.283 566.452 226.757C567.185 229.144 567.531 231.634 567.479 234.131C567.479 238.798 566.863 243.448 566.224 248.075C565.819 250.976 565.289 254.133 563.094 256.053C560.813 253.135 558.52 250.286 555.612 248.007Z" fill="#A0616A"/>
<path d="M541.105 250.229C547.64 250.229 552.938 244.935 552.938 238.405C552.938 231.874 547.64 226.58 541.105 226.58C534.571 226.58 529.273 231.874 529.273 238.405C529.273 244.935 534.571 250.229 541.105 250.229Z" fill="#A0616A"/>
<path d="M546.836 250.856C547.121 252.993 548.268 254.908 549.385 256.754C550.058 257.894 550.919 259.107 552.236 259.233C548.808 261.031 545.207 262.478 541.488 263.552C540.223 263.977 538.898 264.19 537.564 264.185C536.434 264.101 535.328 263.817 534.297 263.347C532.042 262.366 530.039 260.885 528.44 259.018C526.84 257.15 525.687 254.944 525.065 252.565C526.538 252.605 528.011 252.492 529.461 252.229C530.289 252.166 531.061 251.786 531.617 251.169C531.947 250.592 532.102 249.93 532.062 249.266C532.119 247.294 532.124 245.317 532.062 243.345C534.969 243.16 537.885 243.519 540.661 244.405C541.801 244.775 542.942 245.22 544.082 245.511C544.801 245.693 546.779 245.511 547.31 245.927C548.182 246.514 546.637 249.403 546.836 250.856Z" fill="#A0616A"/>
<path d="M541.636 258.042C541.765 256.484 542.383 255.006 543.4 253.819C544.418 252.631 545.783 251.794 547.304 251.426C548.524 251.152 549.847 251.186 550.936 250.582C552.807 249.539 553.371 246.998 555.167 245.83C556.964 244.662 559.513 245.311 561.075 246.787C562.637 248.263 563.43 250.366 564.069 252.423C565.022 255.205 565.54 258.117 565.603 261.056C565.626 261.594 565.541 262.131 565.352 262.635C565.014 263.223 564.587 263.755 564.086 264.213C563.417 264.964 562.917 265.85 562.622 266.81C562.327 267.771 562.243 268.784 562.375 269.781C562.537 271.658 562.365 273.548 561.868 275.365C560.727 280.391 559.587 285.412 558.669 290.484C558.453 291.417 558.382 292.378 558.458 293.333C558.634 294.706 559.393 296.005 559.227 297.379C559.066 298.018 558.946 298.667 558.868 299.322C558.905 299.818 559.021 300.304 559.21 300.764C560.505 304.519 564 313.124 563.966 317.102C557.893 315.546 548.94 315.198 542.668 315.17C540.943 315.152 539.218 315.228 537.502 315.398C533.379 315.842 529.159 317.045 525.162 315.933C521.45 314.902 518.165 311.944 514.327 312.315C513.495 310.138 514.476 302.872 515.257 300.673C518.302 292.011 518.894 282.678 516.967 273.701C516.266 270.476 517.23 267.051 516.449 263.849C516.306 263.091 516.015 262.369 515.593 261.723C515.381 261.402 515.09 261.141 514.749 260.962C514.408 260.784 514.028 260.695 513.643 260.703C513.572 255.551 514.05 250.407 515.069 245.357C515.445 243.562 516.209 241.442 518.051 241.134C519.682 240.855 521.05 242.234 522.362 243.243C523.707 244.283 525.264 245.014 526.924 245.385C527.592 245.465 528.232 245.699 528.794 246.069C529.575 246.719 529.689 247.887 530.328 248.679C531.468 250.098 534.017 249.978 534.827 251.614C535.004 252.101 535.147 252.6 535.255 253.107C535.638 254.079 536.291 254.921 537.137 255.534C538.407 256.728 539.952 257.589 541.636 258.042Z" fill="#E63946"/>
<path d="M531.491 225.834C531.286 225.053 531.32 224.124 531.948 223.6C532.261 223.355 532.672 223.264 533.008 223.03C533.482 222.632 533.87 222.141 534.149 221.588C535 220.398 536.245 219.548 537.663 219.188C539.082 218.828 540.582 218.982 541.898 219.622C543.957 220.699 545.2 222.853 547.03 224.306C547.96 225.059 549.037 225.617 549.973 226.369C551.846 227.986 553.177 230.138 553.787 232.535C554.393 234.915 554.747 237.352 554.842 239.806C554.94 240.543 554.911 241.291 554.757 242.018C554.567 242.627 554.285 243.204 553.919 243.727C552.037 246.576 549.556 249.163 546.449 250.634C543.341 252.104 539.56 252.343 536.492 250.805C536.184 250.68 535.918 250.468 535.728 250.195C535.554 249.779 535.512 249.319 535.608 248.879C535.775 247.137 535.43 245.384 534.616 243.835C534.046 242.696 533.191 241.715 532.734 240.536C532.31 239.216 532.129 237.829 532.198 236.444C532.147 232.86 532.392 229.287 531.491 225.834Z" fill="#2F3037"/>
</g>
<defs>
<linearGradient id="paint0_linear" x1="573.666" y1="314.423" x2="484.396" y2="314.423" gradientUnits="userSpaceOnUse">
<stop stop-color="#808080" stop-opacity="0.25"/>
<stop offset="0.54" stop-color="#808080" stop-opacity="0.12"/>
<stop offset="1" stop-color="#808080" stop-opacity="0.1"/>
</linearGradient>
<clipPath id="clip0">
<rect width="635" height="447" fill="white"/>
</clipPath>
</defs>
</svg>
