<svg width="628" height="437" viewBox="0 0 628 437" fill="none" xmlns="http://www.w3.org/2000/svg">
<g id="chart">
<g id="bgc">
<path id="Vector" opacity="0.1" d="M610.463 389.987C596.578 401.498 576.819 406.262 557.711 409.27L554.495 409.761C534.536 412.735 514.356 414.319 494.107 415.282C483.272 415.807 472.438 416.177 461.604 416.508L453.113 416.758C442.088 417.085 431.043 417.406 419.977 417.721C409.142 418.029 398.308 418.318 387.473 418.588C373.598 418.926 359.722 419.207 345.846 419.431C335.012 419.602 324.177 419.72 313.343 419.784C299.464 419.864 285.588 419.837 271.716 419.705C260.874 419.594 250.04 419.404 239.213 419.135C225.329 418.778 211.454 418.255 197.586 417.568C188.173 417.108 178.766 416.555 169.365 415.909L165.082 415.607C124.727 412.701 83.6475 407.487 48.3329 391.007L47.3807 390.556C46.9074 390.334 46.4341 390.112 45.9608 389.878C39.4768 386.78 33.2658 383.141 27.394 379C16.953 371.557 8.33111 362.474 3.77495 351.698C-3.36437 334.796 0.410567 315.797 8.5649 299.271C16.7192 282.746 28.9621 267.827 39.5514 252.264C42.6534 247.705 45.5958 242.975 48.3329 238.126C65.4399 207.713 73.925 172.518 55.9912 143.211C53.624 139.474 51.068 135.86 48.3329 132.384C43.9593 126.685 39.5114 120.986 36.5063 114.678C29.4981 99.999 31.0036 83.49 33.5582 67.8076C36.9796 46.9566 43.2522 24.4986 62.8568 11.4718C83.197 -2.0566 112.068 -1.37278 137.312 3.49379C176.561 11.0102 212.788 26.7439 249.357 40.9333C285.926 55.1227 324.234 68.0983 364.442 69.4944C373.079 69.7898 381.726 69.4756 390.319 68.5541C401.774 67.3777 413.074 64.9997 424.031 61.4594C439.855 56.251 454.253 48.4155 464.928 37.5255C487.823 14.247 530.847 12.4861 561.868 26.5444C591.468 39.9588 610.611 68.349 609.197 96.705C607.589 128.269 583.936 154.22 562.261 180.838C559.632 184.064 557.038 187.301 554.512 190.56C553.101 192.38 551.718 194.203 550.36 196.031C547.982 199.256 545.684 202.499 543.518 205.781C532.444 222.609 524.614 242.821 532.238 260.988C536.515 271.16 544.675 278.922 554.512 285.697C576.551 300.873 606.973 311.084 620.659 332.329C632.451 350.638 628.083 375.353 610.463 389.987Z" fill="#FCBF49"/>
</g>
<g id="tree">
<path id="Vector_2" d="M110.34 428.144C128.294 428.144 142.849 425.348 142.849 421.898C142.849 418.449 128.294 415.653 110.34 415.653C92.3859 415.653 77.8311 418.449 77.8311 421.898C77.8311 425.348 92.3859 428.144 110.34 428.144Z" fill="#FCBF49"/>
<path id="Vector_3" d="M109.798 424.195C111.89 424.195 113.585 421.978 113.585 419.243C113.585 416.508 111.89 414.291 109.798 414.291C107.707 414.291 106.012 416.508 106.012 419.243C106.012 421.978 107.707 424.195 109.798 424.195Z" fill="#434149"/>
<path id="Vector_4" d="M109.798 418.143C111.89 418.143 113.585 415.926 113.585 413.191C113.585 410.456 111.89 408.239 109.798 408.239C107.707 408.239 106.012 410.456 106.012 413.191C106.012 415.926 107.707 418.143 109.798 418.143Z" fill="#434149"/>
<path id="Vector_5" d="M109.798 412.091C111.89 412.091 113.585 409.874 113.585 407.139C113.585 404.404 111.89 402.187 109.798 402.187C107.707 402.187 106.012 404.404 106.012 407.139C106.012 409.874 107.707 412.091 109.798 412.091Z" fill="#434149"/>
<path id="Vector_6" d="M109.798 406.039C111.89 406.039 113.585 403.822 113.585 401.087C113.585 398.352 111.89 396.135 109.798 396.135C107.707 396.135 106.012 398.352 106.012 401.087C106.012 403.822 107.707 406.039 109.798 406.039Z" fill="#434149"/>
<path id="Vector_7" d="M109.798 399.988C111.89 399.988 113.585 397.77 113.585 395.036C113.585 392.301 111.89 390.083 109.798 390.083C107.707 390.083 106.012 392.301 106.012 395.036C106.012 397.77 107.707 399.988 109.798 399.988Z" fill="#434149"/>
<path id="Vector_8" d="M109.798 393.936C111.89 393.936 113.585 391.719 113.585 388.984C113.585 386.249 111.89 384.032 109.798 384.032C107.707 384.032 106.012 386.249 106.012 388.984C106.012 391.719 107.707 393.936 109.798 393.936Z" fill="#434149"/>
<path id="Vector_9" d="M109.798 387.884C111.89 387.884 113.585 385.667 113.585 382.932C113.585 380.197 111.89 377.98 109.798 377.98C107.707 377.98 106.012 380.197 106.012 382.932C106.012 385.667 107.707 387.884 109.798 387.884Z" fill="#434149"/>
<path id="Vector_10" d="M123.969 341.515C124.485 340.856 124.955 340.163 125.377 339.441L115.432 337.805L126.187 337.891C127.218 335.646 127.781 333.215 127.841 330.746C127.901 328.277 127.456 325.822 126.535 323.53L112.102 331.012L125.411 321.217C124.163 319.065 122.486 317.193 120.483 315.717C118.479 314.241 116.194 313.193 113.768 312.639C111.342 312.084 108.828 312.034 106.382 312.492C103.936 312.95 101.61 313.907 99.55 315.302C97.4898 316.697 95.7391 318.501 94.4067 320.601C93.0743 322.702 92.1889 325.054 91.8055 327.511C91.4221 329.969 91.5489 332.479 92.1781 334.885C92.8073 337.291 93.9254 339.542 95.4627 341.498C94.6585 342.523 93.9665 343.631 93.3985 344.803L106.309 351.504L92.5431 346.889C91.5761 349.744 91.3367 352.795 91.8464 355.766C92.3562 358.737 93.5991 361.534 95.4627 363.904C93.3598 366.578 92.052 369.788 91.6888 373.169C91.3255 376.55 91.9214 379.965 93.4084 383.023C94.8955 386.082 97.2136 388.66 100.098 390.464C102.982 392.268 106.316 393.225 109.719 393.225C113.121 393.225 116.455 392.268 119.339 390.464C122.223 388.66 124.542 386.082 126.029 383.023C127.516 379.965 128.112 376.55 127.748 373.169C127.385 369.788 126.077 366.578 123.974 363.904C126.486 360.71 127.852 356.764 127.852 352.701C127.852 348.638 126.486 344.693 123.974 341.498L123.969 341.515Z" fill="#FCBF49"/>
<path id="Vector_11" opacity="0.1" d="M91.5851 352.718C91.5784 356.782 92.9447 360.73 95.4627 363.921C93.3598 366.595 92.052 369.805 91.6888 373.186C91.3255 376.567 91.9214 379.982 93.4084 383.04C94.8955 386.099 97.2136 388.677 100.098 390.481C102.982 392.285 106.316 393.242 109.719 393.242C113.121 393.242 116.455 392.285 119.339 390.481C122.223 388.677 124.542 386.099 126.029 383.04C127.516 379.982 128.112 376.567 127.748 373.186C127.385 369.805 126.077 366.595 123.974 363.921C126.398 360.838 91.5851 350.684 91.5851 352.718Z" fill="#434149"/>
</g>
<g id="rectangles">
<path id="Vector_12" d="M197.586 288.735V417.522C188.173 417.062 178.766 416.51 169.365 415.864L165.082 415.562V288.735C165.082 288.075 165.213 287.421 165.465 286.811C165.718 286.202 166.089 285.647 166.556 285.181C167.023 284.714 167.577 284.344 168.187 284.091C168.797 283.839 169.451 283.709 170.112 283.709H192.556C193.217 283.709 193.871 283.839 194.481 284.091C195.091 284.344 195.646 284.714 196.113 285.181C196.58 285.647 196.95 286.202 197.203 286.811C197.456 287.421 197.586 288.075 197.586 288.735Z" fill="#FCBF49"/>
<path id="Vector_13" d="M239.213 419.123V202.687C239.213 201.354 239.743 200.075 240.686 199.133C241.629 198.19 242.908 197.661 244.242 197.661H266.687C267.347 197.661 268.001 197.791 268.611 198.043C269.221 198.296 269.776 198.666 270.243 199.133C270.71 199.599 271.08 200.153 271.333 200.763C271.586 201.373 271.716 202.027 271.716 202.687V419.687L239.213 419.123Z" fill="#FCBF49"/>
<path id="Vector_14" d="M313.343 419.801V247.705C313.343 246.372 313.873 245.094 314.816 244.151C315.759 243.209 317.039 242.679 318.372 242.679H340.817C342.151 242.679 343.43 243.209 344.373 244.151C345.316 245.094 345.846 246.372 345.846 247.705V419.431L313.343 419.801Z" fill="#FCBF49"/>
<path id="Vector_15" d="M419.977 120.058V417.721C409.142 418.029 398.308 418.318 387.473 418.588V120.058C387.473 118.725 388.003 117.446 388.946 116.504C389.89 115.561 391.169 115.031 392.503 115.031H414.947C416.281 115.031 417.56 115.561 418.504 116.504C419.447 117.446 419.977 118.725 419.977 120.058Z" fill="#FCBF49"/>
<path id="Vector_16" d="M494.107 179.892V415.243C483.272 415.767 472.438 416.137 461.604 416.468V179.892C461.604 178.559 462.133 177.281 463.077 176.338C464.02 175.396 465.299 174.866 466.633 174.866H489.077C490.411 174.866 491.691 175.396 492.634 176.338C493.577 177.281 494.107 178.559 494.107 179.892Z" fill="#FCBF49"/>
</g>
<g id="crutches">
<path id="Vector_17" d="M181.619 213.628L255.749 130.999L329.88 172.598L404.01 44.9507L478.14 105.925" stroke="#F8F8F8" stroke-width="7" stroke-miterlimit="10" stroke-linecap="round"/>
<path id="Vector_18" d="M181.334 229.584C190.152 229.584 197.301 222.44 197.301 213.628C197.301 204.816 190.152 197.672 181.334 197.672C172.516 197.672 165.368 204.816 165.368 213.628C165.368 222.44 172.516 229.584 181.334 229.584Z" fill="#FCBF49"/>
<path id="Vector_19" d="M255.464 146.955C264.282 146.955 271.431 139.811 271.431 130.999C271.431 122.187 264.282 115.043 255.464 115.043C246.646 115.043 239.498 122.187 239.498 130.999C239.498 139.811 246.646 146.955 255.464 146.955Z" fill="#FCBF49"/>
<path id="Vector_20" d="M329.595 188.554C338.413 188.554 345.561 181.411 345.561 172.598C345.561 163.786 338.413 156.642 329.595 156.642C320.777 156.642 313.628 163.786 313.628 172.598C313.628 181.411 320.777 188.554 329.595 188.554Z" fill="#FCBF49"/>
<path id="Vector_21" d="M403.725 60.9066C412.543 60.9066 419.692 53.7629 419.692 44.9507C419.692 36.1385 412.543 28.9948 403.725 28.9948C394.907 28.9948 387.758 36.1385 387.758 44.9507C387.758 53.7629 394.907 60.9066 403.725 60.9066Z" fill="#FCBF49"/>
<path id="Vector_22" d="M546.283 196.532C555.101 196.532 562.25 189.389 562.25 180.576C562.25 171.764 555.101 164.62 546.283 164.62C537.465 164.62 530.317 171.764 530.317 180.576C530.317 189.389 537.465 196.532 546.283 196.532Z" fill="#FCBF49"/>
</g>
<g id="character">
<path id="Vector_23" d="M484.47 190.361C484.576 191.359 484.972 192.304 485.61 193.079C486.437 194.013 487.675 194.441 488.787 194.999C491.664 196.471 493.862 198.996 494.922 202.048C496.821 207.587 497.066 213.445 499.484 218.791C501.902 224.136 504.742 229.27 506.829 234.747C508.015 237.852 508.961 241.083 510.701 243.91C511.543 245.3 512.617 246.535 513.877 247.563C513.746 249.569 513.694 251.552 513.706 253.558C514.091 253.55 514.472 253.64 514.813 253.819C515.154 253.999 515.444 254.262 515.656 254.583C516.078 255.233 516.369 255.959 516.511 256.72C517.293 259.951 516.329 263.393 517.03 266.641C518.957 275.677 518.365 285.067 515.32 293.789C514.538 296 513.558 303.317 514.39 305.511C517.492 305.198 520.241 307.101 523.143 308.361C523.378 310.08 523.238 311.829 522.733 313.489C521.689 316.492 521.695 319.758 521.712 322.932L521.854 346.444C521.854 349.424 521.894 352.445 522.641 355.334C523.491 358.588 525.276 361.904 525.219 365.266C525.065 372.503 528.486 379.399 528.213 386.579C528.161 387.958 527.973 389.326 527.842 390.693C527.505 394.337 527.597 398.007 528.116 401.629C529.153 408.843 531.896 415.938 531.212 423.192C531.166 423.682 531.001 424.332 530.539 424.52C531.109 425.164 531.714 425.802 532.33 426.412C532.205 426.619 532.035 426.797 531.833 426.93C531.16 427.282 530.415 427.477 529.655 427.5C528.764 427.523 527.898 427.805 527.163 428.309C526.629 428.822 526.267 429.486 526.125 430.213C525.923 430.93 525.879 431.683 525.997 432.419C526.115 433.156 526.393 433.857 526.81 434.475C527.319 435.116 527.985 435.614 528.743 435.923C531.377 437.062 534.4 436.236 537.148 435.404L547.914 432.144C548.571 432.008 549.177 431.693 549.665 431.233C549.888 430.969 550.036 430.65 550.092 430.31C552.47 430.879 555.082 430.178 557.505 429.455L568.271 426.189C568.929 426.056 569.536 425.74 570.022 425.278C570.216 425.042 570.356 424.767 570.431 424.472C570.507 424.176 570.517 423.868 570.461 423.568C570.541 423.534 570.621 423.511 570.701 423.471C571.522 423.101 572.411 422.377 572.212 421.505C572.069 420.935 571.499 420.605 571.254 420.081C571.138 419.74 571.115 419.375 571.185 419.022C571.255 418.669 571.416 418.34 571.653 418.069C572.075 417.499 572.645 417.026 573.033 416.428C574.276 414.525 573.432 412.023 572.964 409.795C571.955 405.036 572.89 400.067 572.252 395.246C572.035 393.622 571.641 392.027 571.328 390.414C570.663 386.602 570.223 382.755 570.011 378.891C569.6 373.375 568.066 367.939 568.944 362.468C569.371 359.258 569.552 356.019 569.486 352.781C569.548 350.718 569.458 348.653 569.218 346.603C568.996 345.076 568.602 343.578 568.431 342.045C568.292 340.322 568.262 338.592 568.34 336.865C568.418 333.015 568.063 329.169 567.279 325.399C566.139 320.219 563.995 315.261 563.082 310.07C563.39 310.138 563.698 310.207 563.995 310.287C564.029 306.298 560.533 297.624 559.239 293.841C559.049 293.377 558.934 292.887 558.897 292.387C558.975 291.729 559.095 291.076 559.256 290.433C559.421 289.054 558.686 287.743 558.486 286.364C558.408 285.394 558.48 284.418 558.697 283.469C559.615 278.369 560.756 273.309 561.896 268.254C562.393 266.423 562.565 264.52 562.404 262.63C562.271 261.628 562.355 260.61 562.65 259.643C562.946 258.677 563.445 257.785 564.114 257.028C564.615 256.566 565.042 256.03 565.38 255.438C565.57 254.93 565.655 254.39 565.631 253.848C565.609 251.504 565.263 249.174 564.605 246.924C565.608 245.107 565.979 242.873 566.27 240.764C566.909 236.109 567.547 231.43 567.524 226.729C567.575 224.221 567.229 221.721 566.498 219.321C565.964 217.839 565.312 216.402 564.548 215.024C561.548 209.251 558.68 203.177 554.894 197.888C553.753 196.281 554.472 194.065 554.552 192.082C554.637 189.688 553.691 187.392 552.761 185.192C552.287 183.838 551.559 182.587 550.617 181.505C550.298 181.155 549.911 180.873 549.48 180.677C549.049 180.481 548.582 180.375 548.108 180.365C547.571 180.431 547.054 180.611 546.593 180.893C546.132 181.175 545.736 181.553 545.434 182.001C544.744 182.94 544.247 184.006 543.972 185.137C543.697 186.269 543.649 187.444 543.831 188.594C544.21 190.897 545.214 193.051 546.734 194.823C547.468 195.714 548.308 196.512 549.237 197.199C550.18 200.193 551.13 203.184 552.088 206.174C553.594 210.932 555.099 215.713 557.22 220.215C557.842 221.52 558.526 222.848 558.6 224.29C558.68 225.846 558.03 227.327 557.511 228.792C556.418 231.844 555.799 235.046 555.675 238.285C555.508 238.359 555.348 238.447 555.196 238.548C553.4 239.721 552.835 242.28 550.965 243.329C549.876 243.938 548.553 243.899 547.332 244.178C547.224 244.178 547.116 244.235 547.002 244.269C546.956 244.041 546.91 243.819 546.882 243.585C546.864 243.439 546.864 243.292 546.882 243.146C549.79 241.549 552.232 239.224 553.97 236.399C554.336 235.876 554.619 235.299 554.808 234.69C554.962 233.959 554.991 233.208 554.894 232.467C554.798 229.996 554.445 227.542 553.839 225.145C553.23 222.736 551.899 220.57 550.024 218.939C549.089 218.187 548.011 217.622 547.082 216.865C545.268 215.4 544.025 213.235 541.949 212.146C540.629 211.503 539.122 211.352 537.699 211.72C536.277 212.087 535.032 212.95 534.189 214.152C533.912 214.708 533.524 215.201 533.048 215.6C532.685 215.771 532.331 215.961 531.987 216.169C531.36 216.671 531.326 217.634 531.531 218.415C531.92 220.019 532.138 221.66 532.181 223.31C530.341 225.468 529.327 228.209 529.321 231.045C529.315 233.88 530.316 236.626 532.147 238.793C532.147 239.853 532.147 240.912 532.107 241.972C532.107 242.172 532.107 242.377 532.067 242.576C531.41 242.347 530.821 241.955 530.357 241.437C529.718 240.639 529.604 239.465 528.823 238.81C528.261 238.44 527.62 238.205 526.952 238.126C525.292 237.749 523.734 237.012 522.39 235.966C521.336 235.151 520.241 234.108 519.009 233.869C516.884 229.885 514.403 226.101 511.596 222.563C510.884 221.726 510.236 220.836 509.657 219.902C508.431 217.765 508.066 215.252 507.291 212.91C505.124 206.345 499.718 201.08 498.401 194.287C497.922 191.825 496.359 189.683 495.287 187.414C494.563 185.882 493.765 184.263 492.316 183.386C490.452 182.246 487.874 182.77 486.323 184.303C485.572 185.105 485.015 186.067 484.694 187.117C484.373 188.167 484.296 189.277 484.47 190.361ZM552.174 420.975C551.5 421.327 550.755 421.522 549.995 421.545C549.612 421.585 549.231 421.646 548.855 421.727C548.712 420.531 548.633 419.317 548.541 418.137C548.239 414.268 547.635 410.427 547.036 406.592C546.409 402.603 546.112 398.238 544.755 394.409C542.571 388.174 540.358 381.752 540.638 375.148C540.701 373.649 540.889 372.162 540.969 370.668C541.151 366.97 540.632 363.192 541.539 359.596C541.944 357.961 542.634 356.399 542.896 354.735C543.063 353.233 543.082 351.717 542.953 350.211C542.704 344.981 543.139 339.742 544.247 334.625C545.308 336.01 545.656 337.799 545.958 339.514L548.097 351.105C549.368 357.984 550.492 365.278 553.862 371.398C553.388 373.603 552.921 375.957 553.702 378.065C554.038 378.977 554.592 379.775 554.934 380.698C555.504 382.231 555.424 383.918 555.595 385.542C555.966 388.961 557.38 392.323 556.342 395.622C555.275 399.025 554.581 402.533 554.272 406.085C554.215 407.073 554.101 408.057 553.93 409.031C553.748 409.909 553.451 410.741 553.286 411.641C553.058 412.905 553.114 414.203 553.451 415.442C553.707 416.129 553.864 416.848 553.919 417.579C553.919 418.308 553.023 418.833 552.305 418.947C552.516 419.22 552.744 419.482 552.978 419.739C552.84 420.222 552.56 420.653 552.174 420.975Z" fill="url(#paint0_linear)"/>
<path id="Vector_24" d="M529.655 427.551C528.764 427.575 527.898 427.856 527.163 428.361C526.627 428.867 526.264 429.529 526.125 430.253C525.923 430.964 525.88 431.712 525.998 432.443C526.116 433.173 526.393 433.869 526.81 434.481C527.319 435.12 527.985 435.616 528.743 435.923C531.377 437.062 534.4 436.23 537.148 435.404L547.914 432.167C548.57 432.033 549.176 431.719 549.665 431.261C549.961 430.862 550.125 430.38 550.133 429.884C550.141 429.387 549.993 428.9 549.71 428.492C549.132 427.687 548.343 427.058 547.429 426.674C544.082 425.044 540.307 424.674 536.629 424.605C535.261 424.605 533.909 424.275 532.98 425.329C532.489 425.899 532.58 426.509 531.839 426.993C531.162 427.339 530.416 427.529 529.655 427.551Z" fill="#434149"/>
<path id="Vector_25" d="M549.995 421.636C549.104 421.662 548.24 421.943 547.503 422.446C546.969 422.953 546.606 423.614 546.466 424.338C546.264 425.05 546.22 425.799 546.338 426.53C546.457 427.262 546.734 427.958 547.15 428.572C547.661 429.207 548.327 429.701 549.083 430.008C551.723 431.147 554.74 430.321 557.488 429.495L568.254 426.252C568.911 426.118 569.517 425.804 570.005 425.346C570.301 424.948 570.464 424.467 570.472 423.972C570.481 423.476 570.333 422.99 570.05 422.582C569.471 421.779 568.682 421.15 567.77 420.765C564.417 419.135 560.642 418.759 556.964 418.69C555.595 418.69 554.249 418.365 553.314 419.42C552.824 419.99 552.915 420.594 552.174 421.078C551.5 421.428 550.755 421.619 549.995 421.636Z" fill="#434149"/>
<path id="Vector_26" d="M540.638 304.873C546.982 304.236 553.365 304.057 559.735 304.337C560.155 304.333 560.573 304.399 560.972 304.531C562.375 305.101 562.592 306.936 562.723 308.435C563.293 314.521 565.95 320.191 567.285 326.151C568.068 329.898 568.424 333.722 568.345 337.549C568.268 339.258 568.299 340.971 568.437 342.677C568.608 344.199 569.007 345.692 569.224 347.208C569.464 349.244 569.554 351.295 569.492 353.345C569.557 356.559 569.376 359.772 568.95 362.958C568.072 368.389 569.606 373.786 570.016 379.279C570.221 383.121 570.653 386.948 571.311 390.739C571.624 392.34 572.018 393.924 572.234 395.537C572.873 400.33 571.938 405.264 572.947 409.994C573.415 412.205 574.259 414.69 573.016 416.582C572.628 417.152 572.058 417.636 571.636 418.212C571.399 418.48 571.237 418.807 571.167 419.158C571.097 419.509 571.121 419.873 571.237 420.212C571.482 420.73 572.052 421.072 572.195 421.625C572.417 422.497 571.505 423.209 570.683 423.58C564.496 426.372 556.519 424.406 552.345 419.055C553.063 418.941 553.941 418.422 553.958 417.693C553.904 416.968 553.746 416.254 553.491 415.573C553.155 414.344 553.099 413.055 553.326 411.801C553.491 410.923 553.787 410.091 553.97 409.208C554.141 408.239 554.255 407.261 554.312 406.279C554.62 402.749 555.315 399.264 556.382 395.885C557.42 392.608 556.006 389.291 555.635 385.872C555.464 384.254 555.538 382.584 554.973 381.057C554.631 380.157 554.078 379.347 553.742 378.447C552.961 376.344 553.428 374.008 553.901 371.82C550.531 365.739 549.408 358.491 548.136 351.658L545.998 340.147C545.679 338.438 545.331 336.665 544.287 335.286C543.179 340.368 542.744 345.574 542.993 350.769C543.122 352.266 543.103 353.772 542.936 355.265C542.674 356.918 541.984 358.474 541.579 360.092C540.695 363.665 541.214 367.415 541.009 371.09C540.929 372.578 540.74 374.054 540.678 375.541C540.398 382.106 542.611 388.488 544.795 394.682C546.135 398.483 546.431 402.803 547.076 406.78C547.646 410.593 548.279 414.405 548.581 418.251C548.861 421.785 548.986 425.608 551.187 428.383C549.174 429.688 547.099 431.016 544.744 431.466C541.999 431.895 539.191 431.351 536.806 429.928C534.434 428.511 532.315 426.71 530.533 424.6C530.995 424.44 531.161 423.768 531.206 423.283C531.89 416.069 529.148 409.037 528.11 401.857C527.591 398.26 527.499 394.614 527.836 390.995C527.967 389.633 528.155 388.271 528.207 386.904C528.48 379.775 525.042 372.908 525.167 365.773C525.224 362.428 523.457 359.135 522.59 355.904C521.843 353.054 521.82 350.034 521.803 347.071L521.661 323.707C521.661 320.55 521.661 317.313 522.681 314.333C523.936 310.743 522.499 306.623 522.282 302.827C528.208 304.704 534.444 305.399 540.638 304.873Z" fill="#2F3037"/>
<path id="Vector_27" d="M520.309 237.744C517.912 232.848 514.985 228.229 511.579 223.971C510.867 223.139 510.219 222.255 509.64 221.327C508.414 219.201 508.049 216.705 507.274 214.38C505.107 207.861 499.701 202.624 498.384 195.883C497.905 193.432 496.342 191.324 495.27 189.044C494.546 187.523 493.748 185.916 492.299 185.055C490.435 183.916 487.857 184.44 486.306 185.967C485.56 186.762 485.006 187.717 484.688 188.76C484.37 189.802 484.295 190.903 484.47 191.979C484.577 192.972 484.973 193.911 485.61 194.68C486.437 195.609 487.675 196.031 488.787 196.589C491.66 198.045 493.858 200.554 494.922 203.593C496.821 209.092 497.066 214.916 499.484 220.227C501.902 225.538 504.742 230.632 506.829 236.063C508.015 239.146 508.961 242.332 510.701 245.181C512.44 248.03 515.154 250.418 518.433 250.845C518.411 248.78 518.725 246.724 519.362 244.759C520.075 242.514 521.341 239.87 520.309 237.744Z" fill="#A0616A"/>
<path id="Vector_28" d="M555.612 242.007C555.466 237.977 556.095 233.957 557.465 230.165C557.99 228.712 558.606 227.236 558.555 225.692C558.48 224.256 557.796 222.939 557.175 221.64C555.031 217.167 553.525 212.425 552.043 207.696L549.191 198.777C548.262 198.096 547.421 197.302 546.688 196.412C545.168 194.656 544.164 192.515 543.786 190.224C543.604 189.082 543.652 187.915 543.927 186.791C544.202 185.668 544.699 184.611 545.388 183.682C545.692 183.236 546.088 182.859 546.549 182.578C547.01 182.297 547.526 182.118 548.062 182.052C548.536 182.063 549.002 182.169 549.434 182.365C549.865 182.561 550.252 182.842 550.571 183.192C551.512 184.264 552.24 185.506 552.715 186.85C553.645 189.039 554.591 191.318 554.506 193.689C554.426 195.66 553.691 197.86 554.848 199.461C558.634 204.715 561.503 210.75 564.502 216.488C565.267 217.856 565.919 219.283 566.452 220.757C567.185 223.144 567.531 225.634 567.479 228.131C567.479 232.798 566.863 237.448 566.224 242.075C565.819 244.976 565.289 248.133 563.094 250.053C560.813 247.135 558.52 244.286 555.612 242.007Z" fill="#A0616A"/>
<path id="Vector_29" d="M541.105 244.229C547.64 244.229 552.938 238.935 552.938 232.405C552.938 225.874 547.64 220.58 541.105 220.58C534.571 220.58 529.273 225.874 529.273 232.405C529.273 238.935 534.571 244.229 541.105 244.229Z" fill="#A0616A"/>
<path id="Vector_30" d="M546.836 244.856C547.121 246.993 548.268 248.908 549.385 250.754C550.058 251.894 550.919 253.107 552.236 253.233C548.808 255.031 545.207 256.478 541.488 257.552C540.223 257.977 538.898 258.19 537.564 258.185C536.434 258.101 535.328 257.817 534.297 257.347C532.042 256.366 530.039 254.885 528.44 253.018C526.84 251.15 525.687 248.944 525.065 246.565C526.538 246.605 528.011 246.492 529.461 246.229C530.289 246.166 531.061 245.786 531.617 245.169C531.947 244.592 532.102 243.93 532.062 243.266C532.119 241.294 532.124 239.317 532.062 237.345C534.969 237.16 537.885 237.519 540.661 238.405C541.801 238.775 542.942 239.22 544.082 239.511C544.801 239.693 546.779 239.511 547.31 239.927C548.182 240.514 546.637 243.403 546.836 244.856Z" fill="#A0616A"/>
<path id="Vector_31" d="M541.636 252.042C541.765 250.484 542.383 249.006 543.4 247.819C544.418 246.631 545.783 245.794 547.304 245.426C548.524 245.152 549.847 245.186 550.936 244.582C552.807 243.539 553.371 240.998 555.167 239.83C556.964 238.662 559.513 239.311 561.075 240.787C562.637 242.263 563.43 244.366 564.069 246.423C565.022 249.205 565.54 252.117 565.603 255.056C565.626 255.594 565.541 256.131 565.352 256.635C565.014 257.223 564.587 257.755 564.086 258.213C563.417 258.964 562.917 259.85 562.622 260.81C562.327 261.771 562.243 262.784 562.375 263.781C562.537 265.658 562.365 267.548 561.868 269.365C560.727 274.391 559.587 279.412 558.669 284.484C558.453 285.417 558.382 286.378 558.458 287.333C558.634 288.706 559.393 290.005 559.227 291.379C559.066 292.018 558.946 292.667 558.868 293.322C558.905 293.818 559.021 294.304 559.21 294.764C560.505 298.519 564 307.124 563.966 311.102C557.893 309.546 548.94 309.198 542.668 309.17C540.943 309.152 539.218 309.228 537.502 309.398C533.379 309.842 529.159 311.045 525.162 309.933C521.45 308.902 518.165 305.944 514.327 306.315C513.495 304.138 514.476 296.872 515.257 294.673C518.302 286.011 518.894 276.678 516.967 267.701C516.266 264.476 517.23 261.051 516.449 257.849C516.306 257.091 516.015 256.369 515.593 255.723C515.381 255.402 515.09 255.141 514.749 254.962C514.408 254.784 514.028 254.695 513.643 254.703C513.572 249.551 514.05 244.407 515.069 239.357C515.445 237.562 516.209 235.442 518.051 235.134C519.682 234.855 521.05 236.234 522.362 237.243C523.707 238.283 525.264 239.014 526.924 239.385C527.592 239.465 528.232 239.699 528.794 240.069C529.575 240.719 529.689 241.887 530.328 242.679C531.468 244.098 534.017 243.978 534.827 245.614C535.004 246.101 535.147 246.6 535.255 247.107C535.638 248.079 536.291 248.921 537.137 249.534C538.407 250.728 539.952 251.589 541.636 252.042Z" fill="#E63946"/>
<path id="Vector_32" d="M531.491 219.834C531.286 219.053 531.32 218.124 531.948 217.6C532.261 217.355 532.672 217.264 533.008 217.03C533.482 216.632 533.87 216.141 534.149 215.588C535 214.398 536.245 213.548 537.663 213.188C539.082 212.828 540.582 212.982 541.898 213.622C543.957 214.699 545.2 216.853 547.03 218.306C547.96 219.059 549.037 219.617 549.973 220.369C551.846 221.986 553.177 224.138 553.787 226.535C554.393 228.915 554.747 231.352 554.842 233.806C554.94 234.543 554.911 235.291 554.757 236.018C554.567 236.627 554.285 237.204 553.919 237.727C552.037 240.576 549.556 243.163 546.449 244.634C543.341 246.104 539.56 246.343 536.492 244.805C536.184 244.68 535.918 244.468 535.728 244.195C535.554 243.779 535.512 243.319 535.608 242.879C535.775 241.137 535.43 239.384 534.616 237.835C534.046 236.696 533.191 235.715 532.734 234.536C532.31 233.216 532.129 231.829 532.198 230.444C532.147 226.86 532.392 223.287 531.491 219.834Z" fill="#2F3037"/>
</g>
</g>
<defs>
<linearGradient id="paint0_linear" x1="573.666" y1="308.423" x2="484.396" y2="308.423" gradientUnits="userSpaceOnUse">
<stop stop-color="#808080" stop-opacity="0.25"/>
<stop offset="0.54" stop-color="#808080" stop-opacity="0.12"/>
<stop offset="1" stop-color="#808080" stop-opacity="0.1"/>
</linearGradient>
</defs>
</svg>
