<svg width="375" height="94" viewBox="0 0 375 94" fill="none" xmlns="http://www.w3.org/2000/svg">
<path d="M188.679 11V39H183.479V27H168.999V39H163.799V11H168.999V22.56H183.479V11H188.679ZM196.182 11H201.382V39H196.182V11ZM54.9319 60H60.1319V88H54.9319V60ZM68.8653 58.04C69.7986 58.04 70.572 58.3467 71.1853 58.96C71.7986 59.5733 72.1053 60.36 72.1053 61.32C72.1053 61.8 72.0386 62.2667 71.9053 62.72C71.7986 63.1733 71.572 63.8533 71.2253 64.76L69.1453 70.44H65.9053L67.5053 64.28C66.9186 64.0667 66.452 63.7067 66.1053 63.2C65.7853 62.6667 65.6253 62.04 65.6253 61.32C65.6253 60.36 65.932 59.5733 66.5453 58.96C67.1586 58.3467 67.932 58.04 68.8653 58.04ZM103.191 88L103.151 69.44L93.9509 84.8H91.6309L82.4309 69.68V88H77.4709V60H81.7509L92.8709 78.56L103.791 60H108.071L108.111 88H103.191ZM152.449 88L152.409 69.44L143.209 84.8H140.889L131.689 69.68V88H126.729V60H131.009L142.129 78.56L153.049 60H157.329L157.369 88H152.449ZM183.092 81.52H169.092L166.332 88H160.972L173.572 60H178.692L191.332 88H185.892L183.092 81.52ZM181.372 77.44L176.092 65.2L170.852 77.44H181.372ZM199.167 64.4H189.887V60H213.647V64.4H204.367V88H199.167V64.4ZM238.549 83.64V88H217.549V60H237.989V64.36H222.749V71.64H236.269V75.92H222.749V83.64H238.549ZM256.386 88.4C252.519 88.4 249.506 87.32 247.346 85.16C245.186 82.9733 244.106 79.8533 244.106 75.8V60H249.306V75.6C249.306 81.0933 251.679 83.84 256.426 83.84C261.146 83.84 263.506 81.0933 263.506 75.6V60H268.626V75.8C268.626 79.8533 267.546 82.9733 265.386 85.16C263.253 87.32 260.253 88.4 256.386 88.4ZM284.588 88.4C282.428 88.4 280.335 88.0933 278.308 87.48C276.308 86.8667 274.722 86.0533 273.548 85.04L275.348 81C276.495 81.9067 277.895 82.6533 279.548 83.24C281.228 83.8 282.908 84.08 284.588 84.08C286.668 84.08 288.215 83.7467 289.228 83.08C290.268 82.4133 290.788 81.5333 290.788 80.44C290.788 79.64 290.495 78.9867 289.908 78.48C289.348 77.9467 288.628 77.5333 287.748 77.24C286.868 76.9467 285.668 76.6133 284.148 76.24C282.015 75.7333 280.282 75.2267 278.948 74.72C277.642 74.2133 276.508 73.4267 275.548 72.36C274.615 71.2667 274.148 69.8 274.148 67.96C274.148 66.4133 274.562 65.0133 275.388 63.76C276.242 62.48 277.508 61.4667 279.188 60.72C280.895 59.9733 282.975 59.6 285.428 59.6C287.135 59.6 288.815 59.8133 290.468 60.24C292.122 60.6667 293.548 61.28 294.748 62.08L293.108 66.12C291.882 65.4 290.602 64.8533 289.268 64.48C287.935 64.1067 286.642 63.92 285.388 63.92C283.335 63.92 281.802 64.2667 280.788 64.96C279.802 65.6533 279.308 66.5733 279.308 67.72C279.308 68.52 279.588 69.1733 280.148 69.68C280.735 70.1867 281.468 70.5867 282.348 70.88C283.228 71.1733 284.428 71.5067 285.948 71.88C288.028 72.36 289.735 72.8667 291.068 73.4C292.402 73.9067 293.535 74.6933 294.468 75.76C295.428 76.8267 295.908 78.2667 295.908 80.08C295.908 81.6267 295.482 83.0267 294.628 84.28C293.802 85.5333 292.535 86.5333 290.828 87.28C289.122 88.0267 287.042 88.4 284.588 88.4ZM322.825 83.6V88H298.945V84.52L315.425 64.4H299.225V60H322.305V63.48L305.825 83.6H322.825Z" fill="#434149"/>
<path d="M210.075 39.28C209.169 39.28 208.395 38.9733 207.755 38.36C207.115 37.72 206.795 36.92 206.795 35.96C206.795 34.9733 207.102 34.1733 207.715 33.56C208.355 32.9467 209.142 32.64 210.075 32.64C211.009 32.64 211.782 32.9467 212.395 33.56C213.035 34.1733 213.355 34.9733 213.355 35.96C213.355 36.92 213.035 37.72 212.395 38.36C211.755 38.9733 210.982 39.28 210.075 39.28Z" fill="#FCBF49"/>
</svg>
