<svg width="24" height="17" viewBox="0 0 24 17" fill="none" xmlns="http://www.w3.org/2000/svg">
<path id="Vector" d="M23.0078 4.24998C21.6953 5.93748 19.2344 7.62499 16.6094 7.62499C14.1484 7.62499 12.6719 6.68749 11.3594 5.93749C10.0469 5.37499 8.73437 4.43749 6.60156 4.43749C4.63281 4.43749 2.82813 5.74999 1.84375 6.87499L0.203125 4.06249C1.67969 2.37499 3.97656 0.499985 6.60156 0.499985C9.0625 0.499985 10.5391 1.62499 11.8516 2.18749C13.1641 2.74999 14.4766 3.87499 16.6094 3.87499C18.5781 3.87499 20.3828 2.37498 21.3672 1.24998L23.0078 4.24998V4.24998ZM23.1719 13.4375C21.6953 15.125 19.3984 17 16.7734 17C14.3125 17 12.8359 16.0625 11.5234 15.3125C10.2109 14.75 8.89844 13.625 6.76562 13.625C4.79687 13.625 2.99219 15.125 2.00781 16.25L0.367187 13.25C1.84375 11.5625 4.14062 9.68749 6.76562 9.68749C9.22656 9.68749 10.7031 10.625 12.0156 11.375C13.3281 11.9375 14.6406 12.875 16.7734 12.875C18.7422 12.875 20.5469 11.375 21.5312 10.25L23.1719 13.4375Z" fill="#FCBF49"/>
</svg>
