<svg width="45" height="45" viewBox="0 0 45 45" fill="none" xmlns="http://www.w3.org/2000/svg">
  <path fill-rule="evenodd" clip-rule="evenodd" d="M18 16C16.8954 16 16 16.8954 16 18C16 19.1046 16.8954 20 18 20C19.1046 20 20 19.1046 20 18C20 16.8954 19.1046 16 18 16ZM18 18.6666C18.3682 18.6666 18.6667 18.3681 18.6667 17.9999C18.6667 17.6317 18.3682 17.3333 18 17.3333C17.6318 17.3333 17.3333 17.6317 17.3333 17.9999C17.3333 18.3681 17.6318 18.6666 18 18.6666Z" fill="#434149"/>
  <path fill-rule="evenodd" clip-rule="evenodd" d="M18 21.0002C16.8954 21.0002 16 21.8957 16 23.0002C16 24.1048 16.8954 25.0002 18 25.0002C19.1046 25.0002 20 24.1048 20 23.0002C20 21.8957 19.1046 21.0002 18 21.0002ZM18 23.6666C18.3682 23.6666 18.6667 23.3681 18.6667 22.9999C18.6667 22.6317 18.3682 22.3333 18 22.3333C17.6318 22.3333 17.3333 22.6317 17.3333 22.9999C17.3333 23.3681 17.6318 23.6666 18 23.6666Z" fill="#434149"/>
  <path fill-rule="evenodd" clip-rule="evenodd" d="M18 25.9998C16.8954 25.9998 16 26.8952 16 27.9998C16 29.1043 16.8954 29.9998 18 29.9998C19.1046 29.9998 20 29.1043 20 27.9998C20 26.8952 19.1046 25.9998 18 25.9998ZM18 28.6666C18.3682 28.6666 18.6667 28.3681 18.6667 27.9999C18.6667 27.6317 18.3682 27.3333 18 27.3333C17.6318 27.3333 17.3333 27.6317 17.3333 27.9999C17.3333 28.3681 17.6318 28.6666 18 28.6666Z" fill="#434149"/>
  <path fill-rule="evenodd" clip-rule="evenodd" d="M23 21.0002C21.8954 21.0002 21 21.8957 21 23.0002C21 24.1048 21.8954 25.0002 23 25.0002C24.1046 25.0002 25 24.1048 25 23.0002C25 21.8957 24.1046 21.0002 23 21.0002ZM23 23.6666C23.3682 23.6666 23.6667 23.3681 23.6667 22.9999C23.6667 22.6317 23.3682 22.3333 23 22.3333C22.6318 22.3333 22.3333 22.6317 22.3333 22.9999C22.3333 23.3681 22.6318 23.6666 23 23.6666Z" fill="#434149"/>
  <path fill-rule="evenodd" clip-rule="evenodd" d="M28 21.0002C26.8954 21.0002 26 21.8957 26 23.0002C26 24.1048 26.8954 25.0002 28 25.0002C29.1046 25.0002 30 24.1048 30 23.0002C30 21.8957 29.1046 21.0002 28 21.0002ZM28.0001 23.6666C28.3683 23.6666 28.6668 23.3681 28.6668 22.9999C28.6668 22.6317 28.3683 22.3333 28.0001 22.3333C27.6319 22.3333 27.3334 22.6317 27.3334 22.9999C27.3334 23.3681 27.6319 23.6666 28.0001 23.6666Z" fill="#434149"/>
  <path fill-rule="evenodd" clip-rule="evenodd" d="M28 16C26.8954 16 26 16.8954 26 18C26 19.1046 26.8954 20 28 20C29.1046 20 30 19.1046 30 18C30 16.8954 29.1046 16 28 16ZM28.0001 18.6666C28.3683 18.6666 28.6668 18.3681 28.6668 17.9999C28.6668 17.6317 28.3683 17.3333 28.0001 17.3333C27.6319 17.3333 27.3334 17.6317 27.3334 17.9999C27.3334 18.3681 27.6319 18.6666 28.0001 18.6666Z" fill="#434149"/>
  <path fill-rule="evenodd" clip-rule="evenodd" d="M28 25.9998C26.8954 25.9998 26 26.8952 26 27.9998C26 29.1043 26.8954 29.9998 28 29.9998C29.1046 29.9998 30 29.1043 30 27.9998C30 26.8952 29.1046 25.9998 28 25.9998ZM28.0001 28.6666C28.3683 28.6666 28.6668 28.3681 28.6668 27.9999C28.6668 27.6317 28.3683 27.3333 28.0001 27.3333C27.6319 27.3333 27.3334 27.6317 27.3334 27.9999C27.3334 28.3681 27.6319 28.6666 28.0001 28.6666Z" fill="#434149"/>
</svg>
