<svg width="574" height="396" viewBox="0 0 574 396" fill="none" xmlns="http://www.w3.org/2000/svg">
<g clip-path="url(#clip0)">
<path opacity="0.1" d="M4.40853 208.475C14.5543 191.911 37.498 194.798 53.7684 203.445C70.0389 212.092 86.2741 224.999 104.18 222.519C119.278 220.426 131.658 207.268 138.347 192.087C145.035 176.907 146.998 159.789 148.88 143.024C151.245 121.962 153.609 100.886 155.971 79.7966C156.836 72.0855 157.858 63.9469 162.196 57.8455C167.928 49.7974 178.436 47.3226 187.425 49.7421C196.413 52.1615 204.078 58.6503 210.635 65.8885C231.641 89.0669 243.543 120.399 261.907 146.193C265.647 151.444 269.869 156.635 275.455 159.171C283.507 162.817 292.752 160.237 300.618 156.178C326.285 142.954 343.526 115.968 360.471 90.7872C368.715 78.5491 378.765 65.461 392.479 64.128C406.907 62.6944 419.433 74.9828 427.913 87.9955C455.13 129.866 460.962 187.027 493.84 223.545C497.922 228.072 502.426 232.257 507.615 235.069C509.326 235.993 511.11 236.775 512.949 237.408C541.635 247.332 551.197 287.17 529.98 310.791C529.522 311.294 529.054 311.797 528.581 312.3C525.43 315.625 521.862 318.769 517.604 319.76C513.644 320.675 509.552 319.619 505.627 318.477C480.534 311.158 455.743 299.971 429.8 300.515C404.557 301.018 380.612 312.672 355.65 316.867C338.866 319.689 321.79 319.126 304.82 318.517C248.301 316.485 191.793 314.121 135.297 311.425C107.255 310.137 79.2033 308.91 51.1666 307.476C29.5666 306.355 15.8074 303.885 13.3012 278.83C11.1069 256.889 -8.60078 229.722 4.40853 208.475Z" fill="white"/>
<path d="M397.526 396C472.568 396 533.402 387.503 533.402 377.022C533.402 366.54 472.568 358.043 397.526 358.043C322.484 358.043 261.651 366.54 261.651 377.022C261.651 387.503 322.484 396 397.526 396Z" fill="#30374E"/>
<path d="M74.8551 295.148C74.8551 295.148 81.4982 293.639 85.8514 298.1C85.8514 298.1 83.0532 300.615 76.4706 297.829L74.8551 295.148Z" fill="white"/>
<path d="M74.1203 295.082C74.1203 295.082 70.1848 300.656 72.681 306.375C72.681 306.375 76.083 304.74 75.9874 297.597L74.1203 295.082Z" fill="white"/>
<path d="M69.6917 286.682C69.6917 286.682 72.0519 281.577 83.2797 287.748C83.2797 287.748 82.0719 291.159 77.301 291.209C72.5301 291.259 71.1008 289.192 69.6917 286.682Z" fill="white"/>
<path d="M68.977 286.37C68.977 286.37 63.3555 286.109 63.6726 298.905C63.6726 298.905 67.2608 299.408 69.5004 295.193C71.7399 290.978 70.5522 288.8 68.977 286.37Z" fill="white"/>
<path d="M65.0616 276.411C65.0616 276.411 67.578 267.518 79.3895 272.95C79.3895 272.95 77.3261 281.094 66.4054 279.308L65.0616 276.411Z" fill="white"/>
<path d="M60.6782 263.665C60.6782 263.665 66.0027 254.49 77.0292 261.934C77.0292 261.934 73.914 270.42 61.7854 266.738L60.6782 263.665Z" fill="white"/>
<path d="M58.5947 251.391C58.5947 251.391 64.9509 242.865 75.8868 250.229C75.8868 250.229 69.8175 257.744 58.7306 253.449L58.5947 251.391Z" fill="white"/>
<path d="M56.7125 239.46C56.7125 239.46 63.1341 230.577 73.6171 237.876C73.6171 237.876 66.2292 245.838 56.8434 241.432L56.7125 239.46Z" fill="white"/>
<path d="M56.6219 228.766C56.6219 228.766 63.2398 217.434 73.0534 224.154C73.0534 224.154 65.7964 233.997 56.7629 230.824L56.6219 228.766Z" fill="white"/>
<path d="M57.5127 216.201C57.5127 216.201 64.5584 204.934 74.1656 212.59C74.1656 212.59 65.5598 222.524 57.6234 218.198L57.5127 216.201Z" fill="white"/>
<path d="M59.3396 204.904C59.3396 204.904 67.8951 194.185 76.2241 197.676C76.2241 197.676 67.3264 209.043 59.1132 207.615L59.3396 204.904Z" fill="white"/>
<path d="M61.8559 194.139C61.8559 194.139 71.6896 181.061 78.1465 184.773C78.1465 184.773 70.9448 194.879 61.2469 196.519L61.8559 194.139Z" fill="white"/>
<path d="M65.6908 181.595C65.6908 181.595 74.3318 170.87 81.2919 172.923C81.2919 172.923 74.0197 183.934 64.6339 184.834L65.6908 181.595Z" fill="white"/>
<path d="M69.138 169.87C69.138 169.87 78.7906 159.508 83.3854 160.906C83.3854 160.906 76.6668 172.153 68.8311 172.048L69.138 169.87Z" fill="white"/>
<path d="M72.5452 159.025C72.5452 159.025 80.6426 146.877 85.5394 147.456C85.5394 147.456 80.854 158.114 72.6257 160.197L72.5452 159.025Z" fill="white"/>
<path d="M76.063 144.483C76.063 144.483 83.3049 135.097 87.5424 134.835C87.5424 134.835 82.1524 147.078 75.9321 147.41L76.063 144.483Z" fill="white"/>
<path d="M78.076 134.82L84.407 115.862C84.407 115.862 85.9168 132.511 77.3613 138.306L78.076 134.82Z" fill="white"/>
<path d="M79.7821 114.267C79.7821 114.267 80.0036 98.7799 79.1128 97.5828C79.1128 97.5828 85.3885 110.027 80.1898 121.078L79.7821 114.267Z" fill="white"/>
<path d="M64.7396 276.225C64.7396 276.225 56.5566 271.889 52.2738 284.137C52.2738 284.137 59.5711 288.302 65.8619 279.202L64.7396 276.225Z" fill="white"/>
<path d="M60.3914 263.187C60.3914 263.187 50.4671 259.439 46.6272 272.18C46.6272 272.18 54.4127 276.783 61.4784 266.265L60.3914 263.187Z" fill="white"/>
<path d="M58.1971 252.161C58.1971 252.161 50.7539 244.561 40.905 253.333C40.905 253.333 47.9205 259.968 58.333 254.233L58.1971 252.161Z" fill="white"/>
<path d="M56.4761 239.48C56.4761 239.48 48.9271 231.528 39.5111 240.164C39.5111 240.164 47.8954 247.071 56.622 241.447L56.4761 239.48Z" fill="white"/>
<path d="M56.6421 229.068C56.6421 229.068 50.9251 217.263 40.6233 223.198C40.6233 223.198 47.0952 233.575 56.3452 231.115L56.6421 229.068Z" fill="white"/>
<path d="M58.1015 216.111C58.1015 216.111 52.3995 204.089 41.9669 210.542C41.9669 210.542 49.3447 221.412 57.7391 218.052L58.1015 216.111Z" fill="white"/>
<path d="M60.3813 204.894C60.3813 204.894 57.543 191.489 48.5295 190.875C48.5295 190.875 51.3881 205.024 59.3547 207.414L60.3813 204.894Z" fill="white"/>
<path d="M62.0873 194.15C62.0873 194.15 60.2404 177.897 52.7971 177.822C52.7971 177.822 53.8791 190.181 61.4079 196.509L62.0873 194.15Z" fill="white"/>
<path d="M66.4305 181.076C66.4305 181.076 63.3053 167.666 56.1288 166.489C56.1288 166.489 57.8902 179.567 65.9575 184.457L66.4305 181.076Z" fill="white"/>
<path d="M69.9835 169.91C69.9835 169.91 68.977 155.79 64.498 154.005C64.498 154.005 62.6812 166.972 68.8512 171.801L69.9835 169.91Z" fill="white"/>
<path d="M72.8672 158.849C72.8672 158.849 71.282 144.337 66.6721 142.592C66.6721 142.592 65.9172 154.206 72.2583 159.845L72.8672 158.849Z" fill="white"/>
<path d="M76.7675 145.6C76.7675 145.6 75.9421 133.774 72.5652 131.209C72.5652 131.209 70.2603 144.382 75.2577 148.089L76.7675 145.6Z" fill="white"/>
<path d="M77.6432 134.262L73.2145 114.775C73.2145 114.775 70.0792 131.194 78.0307 137.803L77.6432 134.262Z" fill="white"/>
<path d="M76.9537 114.645C76.9537 114.645 68.0812 101.929 68.1517 100.45C68.1517 100.45 69.9332 114.273 80.4363 120.515L76.9537 114.645Z" fill="white"/>
<path d="M77.6432 110.676C77.6432 110.676 68.8562 92.3717 65.3485 91.0588C65.3485 91.0588 76.4656 95.8022 78.237 110.072L77.6432 110.676Z" fill="white"/>
<path d="M75.9019 147.506L75.3987 147.38C80.3558 126.254 81.0553 112.934 77.3614 109.876L77.7036 109.464C81.5989 112.703 80.9849 125.862 75.9019 147.506Z" fill="#444053"/>
<path d="M61.6697 197.132L60.8896 196.916C61.4382 194.974 62.0321 192.998 62.6662 191.051C68.202 174.09 72.8019 158.356 75.6252 146.314L76.2643 145.937C73.436 158.009 68.962 174.321 63.4362 191.297C62.8071 193.239 62.2132 195.201 61.6697 197.132Z" fill="#444053"/>
<path d="M85.3481 310.006C85.2374 309.901 74.1656 299.006 65.6605 279.705C60.6771 268.408 57.516 256.394 56.2948 244.108C54.785 228.751 56.8484 211.347 61.3274 195.367L61.9716 196.031C51.9063 231.9 58.8564 261.592 66.6167 279.228C75.0362 298.342 85.9822 309.131 86.0929 309.237L85.3481 310.006Z" fill="#444053"/>
<path d="M97.5371 252.558C97.5371 252.558 101.563 251.638 104.19 254.344C104.19 254.344 102.494 255.853 98.5185 254.178L97.5371 252.558Z" fill="white"/>
<path d="M97.0993 252.523C97.0993 252.523 94.7239 255.893 96.2337 259.349C96.2337 259.349 98.287 258.343 98.2467 254.042L97.0993 252.523Z" fill="white"/>
<path d="M94.4219 247.438C94.4219 247.438 95.8461 244.354 102.625 248.087C102.625 248.087 101.895 250.144 99.0116 250.174C96.1279 250.204 95.2825 248.957 94.4219 247.438Z" fill="white"/>
<path d="M93.9892 247.252C93.9892 247.252 90.5872 247.096 90.7784 254.827C90.7784 254.827 92.9475 255.129 94.3012 252.583C95.655 250.038 94.9404 248.72 93.9892 247.252Z" fill="white"/>
<path d="M91.6086 241.231C91.6086 241.231 93.1537 235.854 100.28 239.128C100.28 239.128 99.0368 244.053 92.434 242.971L91.6086 241.231Z" fill="white"/>
<path d="M88.9716 233.525C88.9716 233.525 92.1874 227.992 98.8556 232.478C98.8556 232.478 96.9684 237.609 89.6409 235.381L88.9716 233.525Z" fill="white"/>
<path d="M87.7084 226.105C87.7084 226.105 91.5533 220.949 98.1611 225.401C98.1611 225.401 94.4974 229.928 87.7939 227.348L87.7084 226.105Z" fill="white"/>
<path d="M86.571 218.892C86.571 218.892 90.4562 213.52 96.7923 217.937C96.7923 217.937 92.3283 222.75 86.6516 220.084L86.571 218.892Z" fill="white"/>
<path d="M86.5208 212.424C86.5208 212.424 90.5468 205.578 96.4501 209.637C96.4501 209.637 92.0617 215.588 86.6013 213.661L86.5208 212.424Z" fill="white"/>
<path d="M87.0442 204.833C87.0442 204.833 91.3169 198.018 97.1094 202.63C97.1094 202.63 91.9057 208.636 87.1046 206.02L87.0442 204.833Z" fill="white"/>
<path d="M88.1613 198.003C88.1613 198.003 93.3298 191.524 98.3675 193.636C98.3675 193.636 92.9876 200.507 88.0355 199.642L88.1613 198.003Z" fill="white"/>
<path d="M89.6812 191.494C89.6812 191.494 95.6247 183.591 99.5301 185.83C99.5301 185.83 95.1768 191.941 89.3138 192.932L89.6812 191.494Z" fill="white"/>
<path d="M92.0012 183.918C92.0012 183.918 97.2251 177.435 101.442 178.677C101.442 178.677 97.049 185.332 91.3772 185.875L92.0012 183.918Z" fill="white"/>
<path d="M94.0848 176.821C94.0848 176.821 99.9176 170.559 102.696 171.404C102.696 171.404 98.6393 178.199 93.8986 178.139L94.0848 176.821Z" fill="white"/>
<path d="M96.1431 170.267C96.1431 170.267 101.04 162.923 103.999 163.265C103.999 163.265 101.171 169.708 96.1934 170.971L96.1431 170.267Z" fill="white"/>
<path d="M98.2769 161.474C98.2769 161.474 102.655 155.8 105.217 155.64C105.217 155.64 101.956 163.044 98.1964 163.23L98.2769 161.474Z" fill="white"/>
<path d="M99.4898 155.629L103.31 144.181C103.31 144.181 104.215 154.241 99.0369 157.762L99.4898 155.629Z" fill="white"/>
<path d="M100.522 143.205C100.522 143.205 100.652 133.844 100.114 133.12C100.114 133.12 103.909 140.64 100.763 147.325L100.522 143.205Z" fill="white"/>
<path d="M91.4225 241.12C91.4225 241.12 86.4804 238.494 83.8735 245.899C83.8735 245.899 88.2871 248.414 92.0918 242.921L91.4225 241.12Z" fill="white"/>
<path d="M88.8005 233.213C88.8005 233.213 82.7966 230.949 80.4766 238.65C80.4766 238.65 85.1821 241.432 89.4547 235.079L88.8005 233.213Z" fill="white"/>
<path d="M87.4668 226.568C87.4668 226.568 82.9727 221.976 77.014 227.272C77.014 227.272 81.2565 231.296 87.5523 227.816L87.4668 226.568Z" fill="white"/>
<path d="M86.4302 218.902C86.4302 218.902 81.8656 214.099 76.1737 219.32C76.1737 219.32 81.2415 223.49 86.5107 220.094L86.4302 218.902Z" fill="white"/>
<path d="M86.5308 212.59C86.5308 212.59 83.0734 205.452 76.843 209.038C76.843 209.038 80.7584 215.311 86.3496 213.827L86.5308 212.59Z" fill="white"/>
<path d="M87.4115 204.768C87.4115 204.768 83.9642 197.5 77.6432 201.403C77.6432 201.403 82.1021 207.977 87.18 205.93L87.4115 204.768Z" fill="white"/>
<path d="M88.7905 198.002C88.7905 198.002 87.0743 189.894 81.624 189.527C81.624 189.527 83.3502 198.078 88.1664 199.522L88.7905 198.002Z" fill="white"/>
<path d="M89.8221 191.499C89.8221 191.499 88.7149 181.675 84.1855 181.625C84.1855 181.625 84.8398 189.099 89.3893 192.927L89.8221 191.499Z" fill="white"/>
<path d="M92.4441 183.596C92.4441 183.596 90.5569 175.488 86.2188 174.774C86.2188 174.774 87.2857 182.676 92.1623 185.634L92.4441 183.596Z" fill="white"/>
<path d="M94.5931 176.846C94.5931 176.846 93.9741 168.295 91.2816 167.229C91.2816 167.229 90.1795 175.071 93.9086 177.988L94.5931 176.846Z" fill="white"/>
<path d="M96.3394 170.156C96.3394 170.156 95.3832 161.384 92.5951 160.328C92.5951 160.328 92.1372 167.37 95.972 170.76L96.3394 170.156Z" fill="white"/>
<path d="M98.6946 162.148C98.6946 162.148 98.1914 155.001 96.1783 153.446C96.1783 153.446 94.7843 161.414 97.8039 163.652L98.6946 162.148Z" fill="white"/>
<path d="M99.2382 155.292L96.5608 143.512C96.5608 143.512 94.6635 153.441 99.4697 157.435L99.2382 155.292Z" fill="white"/>
<path d="M98.8104 143.437C98.8104 143.437 93.4507 135.756 93.4909 134.855C93.4909 134.855 94.5629 143.21 100.914 146.983L98.8104 143.437Z" fill="white"/>
<path d="M99.213 141.032C99.213 141.032 93.8985 129.966 91.7798 129.187C91.7798 129.187 98.5034 132.054 99.5703 140.685L99.213 141.032Z" fill="white"/>
<path d="M98.1713 163.295L97.8542 163.22C100.874 150.448 101.276 142.395 99.0419 140.549L99.2483 140.298C101.619 142.26 101.246 150.217 98.1713 163.295Z" fill="#444053"/>
<path d="M89.5705 193.304L89.0974 193.169C89.4296 191.997 89.7919 190.805 90.1744 189.648C93.511 179.391 96.2991 169.88 98.0051 162.601L98.3926 162.37C96.6816 169.663 93.9791 179.532 90.6374 189.799C90.2549 190.96 89.8976 192.132 89.5705 193.304Z" fill="#444053"/>
<path d="M103.883 261.542C103.818 261.477 97.1244 254.892 91.9811 243.223C88.9707 236.393 87.0598 229.13 86.3194 221.704C85.3984 212.419 86.6566 201.896 89.3692 192.233L89.7567 192.635C83.6723 214.32 87.8745 232.272 92.5649 242.936C97.6579 254.505 104.271 261.009 104.341 261.074L103.883 261.542Z" fill="#444053"/>
<path d="M119.021 286.692C117.73 286.922 116.465 287.282 115.247 287.769C88.101 298.603 88.5539 369.527 88.5539 369.527H80.5621C80.5621 369.527 78.0458 339.09 67.0797 295.666C57.2007 256.597 97.7183 221.583 105.947 214.944C106.873 214.204 107.386 213.812 107.386 213.812C148.195 228.801 119.021 286.692 119.021 286.692Z" fill="#AFC0E0"/>
<path opacity="0.2" d="M110.355 215.044C109.414 214.612 108.443 214.199 107.411 213.822C107.411 213.822 106.908 214.214 105.972 214.954C97.7434 221.593 57.2258 256.608 67.1049 295.676C78.0709 339.1 80.5621 369.527 80.5621 369.527H85.0562C85.0562 369.527 82.5651 339.09 71.5738 295.666C61.7351 256.779 101.86 221.895 110.355 215.044Z" fill="white"/>
<path d="M253.664 295.676C242.673 339.1 240.197 369.527 240.197 369.527H232.19C232.19 369.527 232.693 295.404 203.64 287.13C203.01 286.941 202.37 286.792 201.722 286.682C201.722 286.682 172.533 228.791 213.358 213.812C213.358 213.812 213.77 214.119 214.515 214.717C222.079 220.769 263.654 256.155 253.664 295.676Z" fill="#AFC0E0"/>
<path opacity="0.1" d="M119.021 286.692C117.73 286.921 116.465 287.282 115.247 287.769C110.339 263.762 107.23 239.423 105.947 214.954C106.873 214.214 107.386 213.822 107.386 213.822C148.195 228.801 119.021 286.692 119.021 286.692Z" fill="black"/>
<path opacity="0.1" d="M214.53 214.727C212.866 239.125 209.229 263.349 203.655 287.16C203.026 286.971 202.385 286.822 201.737 286.712C201.737 286.712 172.548 228.822 213.373 213.842C213.358 213.822 213.77 214.129 214.53 214.727Z" fill="black"/>
<path d="M199.588 297.668C196.77 308.781 193.467 320.182 189.679 331.872C189.679 331.872 171.703 350.589 128.281 331.872C128.281 331.872 123.943 319.649 119.172 298.87C108.669 253.182 96.0726 166.117 122.912 76.688C130.904 49.8038 142.264 24.037 156.721 0C156.721 0 179.649 26.3121 196.478 76.6729C213.307 127.034 224.017 201.453 199.588 297.668Z" fill="#E3E8F4"/>
<path d="M160.369 183.712C180.278 183.712 196.418 167.581 196.418 147.682C196.418 127.783 180.278 111.652 160.369 111.652C140.46 111.652 124.321 127.783 124.321 147.682C124.321 167.581 140.46 183.712 160.369 183.712Z" fill="#AFC0E0"/>
<path d="M185.935 147.702C185.935 152.541 184.56 157.28 181.971 161.369C179.381 165.457 175.683 168.727 171.308 170.797C166.932 172.867 162.058 173.653 157.253 173.064C152.448 172.474 147.909 170.532 144.164 167.465C142.337 165.961 140.724 164.212 139.373 162.269C138.766 161.401 138.215 160.495 137.722 159.558C135.805 155.9 134.805 151.832 134.809 147.702C134.809 147.496 134.809 147.295 134.809 147.093C134.94 141.629 136.818 136.351 140.169 132.031C143.52 127.711 148.167 124.578 153.429 123.09C155.439 122.537 157.506 122.223 159.589 122.155H160.354C163.712 122.153 167.038 122.812 170.141 124.095C173.244 125.378 176.064 127.259 178.44 129.632C180.815 132.004 182.7 134.821 183.986 137.922C185.272 141.022 185.934 144.346 185.935 147.702Z" fill="white"/>
<path d="M196.473 76.6729C155.573 96.2448 122.886 76.6729 122.886 76.6729C130.888 49.7927 142.256 24.031 156.721 0C156.721 0 179.649 26.3121 196.473 76.6729Z" fill="#AFC0E0"/>
<path d="M199.589 297.668C197.676 305.193 195.546 312.847 193.197 320.63C192.083 324.342 190.909 328.084 189.674 331.857C189.674 331.857 171.698 350.574 128.276 331.857C128.276 331.857 126.867 327.888 124.754 320.63C123.173 315.147 121.206 307.798 119.152 298.855C119.152 298.855 135.317 305.751 158.261 305.751C172.434 305.8 186.479 303.053 199.589 297.668Z" fill="#AFC0E0"/>
<path d="M193.197 320.63C192.083 324.342 190.909 328.084 189.674 331.857C189.674 331.857 171.698 350.574 128.276 331.857C128.276 331.857 126.867 327.888 124.753 320.63C124.748 320.63 169.005 333.356 193.197 320.63Z" fill="#E3E8F4"/>
<path opacity="0.2" d="M153.444 123.055L153.389 123.095L134.819 147.058C134.819 147.259 134.819 147.461 134.819 147.667C134.815 151.796 135.815 155.865 137.733 159.523L159.614 122.119L153.444 123.055Z" fill="white"/>
<path opacity="0.2" d="M159.373 144.684L144.164 167.445C142.337 165.941 140.725 164.192 139.373 162.249L157.491 142.813L159.373 144.684Z" fill="white"/>
<path opacity="0.2" d="M137.994 331.862C137.994 331.862 133.656 319.634 128.885 298.86C118.382 253.167 105.786 166.102 132.625 76.6729C139.839 52.4754 149.775 29.1733 162.241 7.21305C158.834 2.43954 156.706 0.00500488 156.706 0.00500488C142.246 24.035 130.883 49.795 122.886 76.6729C96.0475 166.102 108.644 253.167 119.147 298.86C123.918 319.634 128.256 331.862 128.256 331.862C145.412 339.251 158.593 340.8 168.266 339.975C160.002 339.347 149.967 337.018 137.994 331.862Z" fill="white"/>
<path d="M471.546 366.655C471.546 366.655 495.069 337.4 493.508 308.1C492.776 295.817 496.05 283.628 502.839 273.363C506.106 268.507 509.812 263.961 513.911 259.781" stroke="#535461" stroke-width="2" stroke-miterlimit="10"/>
<path d="M513.02 241.331C511.339 245.411 513.855 260.284 513.855 260.284C513.855 260.284 526.12 251.492 527.801 247.413C528.608 245.454 528.603 243.254 527.787 241.299C526.972 239.343 525.413 237.792 523.453 236.985C521.493 236.179 519.292 236.184 517.336 236.999C515.379 237.814 513.827 239.372 513.02 241.331Z" fill="white"/>
<path d="M491.49 258.906C492.301 263.242 502.502 274.358 502.502 274.358C502.502 274.358 508.038 260.32 507.207 255.979C506.819 253.896 505.618 252.052 503.87 250.854C502.122 249.655 499.968 249.2 497.884 249.588C495.8 249.976 493.956 251.176 492.756 252.924C491.557 254.671 491.102 256.823 491.49 258.906Z" fill="white"/>
<path d="M476.12 297.748C479.009 301.083 493.433 305.535 493.433 305.535C493.433 305.535 491.098 290.631 488.209 287.291C486.807 285.742 484.854 284.804 482.768 284.677C480.682 284.551 478.63 285.245 477.05 286.613C475.471 287.98 474.49 289.912 474.318 291.993C474.146 294.074 474.797 296.14 476.131 297.748H476.12Z" fill="white"/>
<path d="M471.113 329.754C473.393 333.532 486.855 340.353 486.855 340.353C486.855 340.353 487.076 325.263 484.797 321.49C484.254 320.592 483.539 319.81 482.694 319.188C481.848 318.566 480.889 318.116 479.869 317.865C478.85 317.614 477.791 317.565 476.754 317.723C475.716 317.881 474.719 318.241 473.821 318.784C472.922 319.326 472.139 320.041 471.517 320.886C470.895 321.731 470.445 322.69 470.194 323.709C469.942 324.727 469.894 325.786 470.052 326.823C470.209 327.86 470.57 328.856 471.113 329.754Z" fill="white"/>
<path d="M517.695 281.536C513.598 283.171 498.742 280.505 498.742 280.505C498.742 280.505 507.66 268.338 511.762 266.698C513.73 265.911 515.931 265.939 517.879 266.774C519.828 267.609 521.365 269.184 522.151 271.152C522.938 273.12 522.911 275.319 522.075 277.267C521.239 279.214 519.664 280.75 517.695 281.536Z" fill="white"/>
<path d="M511.364 318.895C506.966 319.232 493.589 312.245 493.589 312.245C493.589 312.245 505.738 303.296 510.141 302.959C512.23 302.843 514.281 303.549 515.855 304.927C517.428 306.305 518.399 308.244 518.559 310.328C518.719 312.413 518.056 314.478 516.711 316.079C515.366 317.68 513.446 318.691 511.364 318.895Z" fill="white"/>
<path d="M500.227 354.356C495.944 355.433 481.581 350.805 481.581 350.805C481.581 350.805 492.044 339.935 496.327 338.864C497.344 338.608 498.403 338.555 499.441 338.708C500.479 338.86 501.477 339.216 502.378 339.754C503.279 340.293 504.065 341.003 504.691 341.845C505.317 342.687 505.771 343.644 506.027 344.661C506.283 345.678 506.336 346.736 506.183 347.774C506.03 348.811 505.674 349.809 505.136 350.709C504.597 351.609 503.887 352.395 503.044 353.021C502.202 353.646 501.245 354.1 500.227 354.356Z" fill="white"/>
<path opacity="0.25" d="M513.02 241.331C511.339 245.411 513.855 260.284 513.855 260.284C513.855 260.284 526.12 251.492 527.801 247.413C528.608 245.454 528.603 243.254 527.787 241.299C526.972 239.343 525.413 237.792 523.453 236.985C521.493 236.179 519.292 236.184 517.336 236.999C515.379 237.814 513.827 239.372 513.02 241.331Z" fill="black"/>
<path opacity="0.25" d="M491.49 258.906C492.301 263.242 502.502 274.358 502.502 274.358C502.502 274.358 508.038 260.32 507.207 255.979C506.819 253.896 505.618 252.052 503.87 250.854C502.122 249.655 499.968 249.2 497.884 249.588C495.8 249.976 493.956 251.176 492.756 252.924C491.557 254.671 491.102 256.823 491.49 258.906Z" fill="black"/>
<path opacity="0.25" d="M476.12 297.748C479.009 301.083 493.433 305.535 493.433 305.535C493.433 305.535 491.098 290.631 488.209 287.291C486.807 285.742 484.854 284.804 482.768 284.677C480.682 284.551 478.63 285.245 477.05 286.613C475.471 287.98 474.49 289.912 474.318 291.993C474.146 294.074 474.797 296.14 476.131 297.748H476.12Z" fill="black"/>
<path opacity="0.25" d="M471.113 329.754C473.393 333.532 486.855 340.353 486.855 340.353C486.855 340.353 487.076 325.263 484.797 321.49C484.254 320.592 483.539 319.81 482.694 319.188C481.848 318.566 480.889 318.116 479.869 317.865C478.85 317.614 477.791 317.565 476.754 317.723C475.716 317.881 474.719 318.241 473.821 318.784C472.922 319.326 472.139 320.041 471.517 320.886C470.895 321.731 470.445 322.69 470.194 323.709C469.942 324.727 469.894 325.786 470.052 326.823C470.209 327.86 470.57 328.856 471.113 329.754Z" fill="black"/>
<path opacity="0.25" d="M517.695 281.536C513.598 283.171 498.742 280.505 498.742 280.505C498.742 280.505 507.66 268.338 511.762 266.698C513.73 265.911 515.931 265.939 517.879 266.774C519.828 267.609 521.365 269.184 522.151 271.152C522.938 273.12 522.911 275.319 522.075 277.267C521.239 279.214 519.664 280.75 517.695 281.536Z" fill="black"/>
<path opacity="0.25" d="M511.364 318.895C506.966 319.232 493.589 312.245 493.589 312.245C493.589 312.245 505.738 303.296 510.141 302.959C512.23 302.843 514.281 303.549 515.855 304.927C517.428 306.305 518.399 308.244 518.559 310.328C518.719 312.413 518.056 314.478 516.711 316.079C515.366 317.68 513.446 318.691 511.364 318.895Z" fill="black"/>
<path opacity="0.25" d="M500.227 354.356C495.944 355.433 481.581 350.805 481.581 350.805C481.581 350.805 492.044 339.935 496.327 338.864C497.344 338.608 498.403 338.555 499.441 338.708C500.479 338.86 501.477 339.216 502.378 339.754C503.279 340.293 504.065 341.003 504.691 341.845C505.317 342.687 505.771 343.644 506.027 344.661C506.283 345.678 506.336 346.736 506.183 347.774C506.03 348.811 505.674 349.809 505.136 350.709C504.597 351.609 503.887 352.395 503.044 353.021C502.202 353.646 501.245 354.1 500.227 354.356Z" fill="black"/>
<path d="M471.757 365.432C471.757 365.432 505.124 348.21 515.576 320.796C519.885 309.267 527.822 299.448 538.193 292.814C543.14 289.7 548.362 287.046 553.794 284.886" stroke="#535461" stroke-width="2" stroke-miterlimit="10"/>
<path d="M560.482 267.648C557.292 270.702 553.562 285.319 553.562 285.319C553.562 285.319 568.338 282.246 571.529 279.197C573.064 277.733 573.954 275.72 574.003 273.6C574.053 271.48 573.258 269.427 571.793 267.892C570.328 266.358 568.314 265.469 566.192 265.419C564.071 265.37 562.017 266.164 560.482 267.628V267.648Z" fill="white"/>
<path d="M533.679 274.997C532.672 279.293 537.478 293.608 537.478 293.608C537.478 293.608 548.193 283.01 549.229 278.689C549.711 276.631 549.357 274.466 548.244 272.669C547.132 270.871 545.352 269.587 543.295 269.099C541.237 268.61 539.07 268.957 537.267 270.062C535.465 271.168 534.174 272.943 533.679 274.997Z" fill="white"/>
<path d="M503.875 304.282C505.164 308.502 516.548 318.412 516.548 318.412C516.548 318.412 520.458 303.825 519.17 299.624C518.864 298.621 518.363 297.687 517.696 296.877C517.029 296.067 516.209 295.395 515.282 294.902C514.356 294.409 513.341 294.102 512.296 294.001C511.251 293.899 510.197 294.004 509.192 294.31C508.188 294.616 507.254 295.117 506.443 295.783C505.633 296.45 504.961 297.27 504.468 298.196C503.974 299.122 503.667 300.136 503.566 301.18C503.464 302.224 503.569 303.279 503.875 304.282Z" fill="white"/>
<path d="M486.322 331.515C486.875 335.896 496.417 347.581 496.417 347.581C496.417 347.581 502.738 333.884 502.179 329.503C501.912 327.401 500.821 325.491 499.145 324.194C497.47 322.896 495.347 322.317 493.244 322.584C491.141 322.851 489.231 323.942 487.932 325.617C486.634 327.291 486.055 329.413 486.322 331.515Z" fill="white"/>
<path d="M548.459 306.299C544.046 306.138 531.55 297.683 531.55 297.683C531.55 297.683 544.635 290.173 549.048 290.334C550.097 290.373 551.128 290.617 552.082 291.054C553.036 291.491 553.895 292.112 554.61 292.88C555.324 293.649 555.88 294.55 556.245 295.534C556.611 296.517 556.779 297.563 556.741 298.611C556.702 299.659 556.457 300.69 556.02 301.643C555.583 302.597 554.962 303.455 554.193 304.169C553.424 304.883 552.522 305.439 551.538 305.804C550.554 306.17 549.508 306.338 548.459 306.299Z" fill="white"/>
<path d="M527.524 337.888C523.362 336.414 513.966 324.609 513.966 324.609C513.966 324.609 528.706 321.354 532.863 322.828C533.853 323.178 534.763 323.72 535.543 324.422C536.323 325.125 536.957 325.973 537.408 326.92C537.86 327.867 538.121 328.894 538.175 329.942C538.23 330.989 538.078 332.038 537.727 333.026C537.377 334.015 536.835 334.925 536.132 335.705C535.43 336.484 534.58 337.118 533.633 337.569C532.685 338.021 531.658 338.281 530.61 338.336C529.562 338.391 528.513 338.238 527.524 337.888Z" fill="white"/>
<path d="M502.96 365.8C498.612 365.05 487.359 355 487.359 355C487.359 355 501.334 349.306 505.682 350.056C507.771 350.416 509.631 351.591 510.854 353.322C512.076 355.053 512.56 357.198 512.2 359.286C511.839 361.374 510.664 363.233 508.932 364.454C507.2 365.676 505.054 366.16 502.965 365.8H502.96Z" fill="white"/>
<path d="M519.2 349.266L493.337 311.777C493.337 311.777 492.834 302.497 491.163 300.329C489.492 298.161 490.801 293.337 490.801 293.337C490.801 293.337 492.612 290.686 491.042 290.445C489.472 290.203 490.801 284.293 490.801 284.293L490.68 274.892C490.68 274.892 492.129 265.838 490.922 263.685C490.568 263.098 490.391 262.422 490.413 261.738C490.434 261.054 490.653 260.39 491.042 259.827C491.042 259.827 492.492 254.641 491.042 253.318C489.593 251.995 489.955 243.912 490.318 237.524C490.68 231.135 487.776 227.519 487.776 226.553C487.776 225.587 478.214 216.186 478.214 215.346C478.214 214.506 472.175 211.005 468.546 210.039C464.918 209.074 463.106 208.354 463.227 207.871C463.348 207.389 457.545 205.462 457.545 205.462C457.545 205.462 452.467 205.1 450.53 202.565C448.592 200.03 442.684 199.305 442.513 199.28C442.478 199.114 442.437 198.943 442.402 198.777C442.367 198.611 442.327 198.415 442.291 198.234C442.749 197.464 443.172 196.68 443.555 195.87C443.67 195.623 443.781 195.367 443.887 195.135C446.005 195.04 448.18 194.587 449.84 193.289C450.693 192.576 451.391 191.695 451.889 190.7C452.386 189.706 452.674 188.62 452.734 187.51C452.837 185.282 452.349 183.066 451.32 181.087C450.263 178.914 448.708 176.665 449.241 174.311C449.478 173.305 450.087 172.4 450.399 171.404C450.988 169.517 450.444 167.445 449.528 165.695C448.612 163.944 447.339 162.405 446.322 160.71C445.024 158.55 444.157 156.158 443.771 153.668C443.565 152.36 443.484 150.982 442.825 149.83C442.278 148.975 441.556 148.246 440.706 147.692C436.925 144.989 432.358 143.605 427.712 143.754C424.421 143.869 421.139 144.76 417.873 144.352C415.905 144.111 414.028 143.412 412.126 142.843C408.07 141.646 403.394 141.153 399.861 143.472C396.328 145.791 394.924 150.353 392.534 153.919C390.42 157.078 387.32 159.724 385.71 163.064C385.71 163.004 385.74 162.938 385.76 162.873C385.364 163.646 385.062 164.463 384.859 165.307C384.245 167.933 384.758 170.679 385.398 173.3C385.725 174.653 386.178 176.122 387.35 176.871C388.523 177.621 390.184 177.455 391.573 177.701C391.522 177.928 391.462 178.159 391.412 178.39C389.973 185.182 391.147 192.266 394.699 198.232C398.252 204.198 403.922 208.607 410.581 210.583C410.581 210.829 410.581 211.086 410.581 211.317C410.578 212.01 410.536 212.702 410.455 213.389C410.455 213.389 398.301 210.874 395.035 212.585C391.769 214.295 385.362 215.603 384.396 216.558C383.43 217.514 381.014 216.8 378.86 222.469C376.706 228.138 376.445 233.917 373.662 236.553C370.879 239.189 369.434 241.014 369.313 242.946C369.193 244.877 369.676 245.355 368.584 245.964C367.492 246.573 365.926 249.098 366.41 250.063C366.41 250.063 367.013 252.473 365.081 253.675C363.148 254.877 363.385 257.292 363.385 257.292C363.385 257.292 362.66 259.948 360.969 260.546C359.278 261.145 358.186 265.128 358.186 265.128L352.686 271.441L341.82 259.419C341.007 258.518 339.868 257.977 338.656 257.915C337.443 257.853 336.255 258.274 335.353 259.087L330.019 263.896C327.96 264.395 326.099 265.503 324.679 267.075C323.517 268.268 322.58 269.662 321.916 271.19L318.992 273.815C318.073 274.954 317.512 276.339 317.378 277.796C317.245 279.254 317.546 280.717 318.242 282.004L325.202 289.695L325.248 289.761C322.616 290.093 320.291 290.938 318.514 292.502C308.122 301.662 307.996 310.107 309.571 313.955C311.146 317.803 324.317 332.642 324.317 332.642C324.317 332.642 331.971 342.586 343.023 347.878L342.937 347.963C342.721 348.195 342.505 348.466 342.293 348.718L342.112 348.949L341.946 349.18L341.75 349.472C341.694 349.548 341.644 349.628 341.594 349.709C341.543 349.789 341.453 349.935 341.387 350.056L341.252 350.287C341.171 350.438 341.085 350.594 341.005 350.755L340.924 350.911C340.824 351.122 340.723 351.338 340.627 351.565C340.592 351.645 340.562 351.731 340.527 351.811C340.466 351.967 340.401 352.128 340.341 352.314C340.28 352.5 340.265 352.52 340.23 352.626C340.195 352.732 340.124 352.938 340.074 353.099C340.024 353.26 340.003 353.325 339.973 353.436C339.943 353.546 339.873 353.788 339.827 353.969C339.782 354.15 339.772 354.18 339.742 354.296C339.676 354.573 339.611 354.859 339.556 355.161C339.556 355.272 339.515 355.387 339.495 355.503C339.455 355.704 339.42 355.911 339.389 356.122C339.364 356.268 339.349 356.414 339.329 356.559C339.309 356.705 339.279 356.957 339.254 357.158L339.208 357.621C339.208 357.842 339.168 358.074 339.153 358.305C339.153 358.446 339.153 358.587 339.128 358.727C339.128 359.11 339.087 359.492 339.082 359.894C338.841 373.979 339.666 376.046 339.666 376.046C339.666 376.046 341.372 380.538 346.083 380.86C346.774 380.91 347.469 380.873 348.151 380.749C354.437 379.662 369.183 377.132 374.381 378.098C377.506 378.677 383.294 377.821 387.416 377.042L388.498 376.836L389.253 379.23L391.643 378.576L393.656 379.748L394.939 380.482C397.325 388.571 407.018 385.814 407.018 385.814L409.292 387.132L432.624 387.736C432.624 387.736 437.656 390.754 440.882 391.699C441.266 391.815 441.658 391.901 442.055 391.956C444.218 392.129 446.389 392.17 448.557 392.077C450.344 392.031 451.727 391.956 451.727 391.956C451.727 391.956 451.491 385.623 451.149 378.536C460.067 378.163 467.973 377.605 472.759 376.765C485.22 374.577 490.418 363.254 492.331 357.203C492.905 359.677 493.314 362.185 493.554 364.713C494.061 366.921 494.709 369.095 495.491 371.222C496.172 372.933 497.064 374.552 498.148 376.041C507.338 372.907 501.777 368.209 499.839 366.157C497.902 364.105 501.173 362.419 501.173 362.419C501.173 362.419 503.689 360.734 503.468 359.165C503.246 357.596 503.105 355.911 511.324 356.031C519.542 356.152 519.2 349.266 519.2 349.266ZM391.542 272.306C391.648 272.995 392.796 280.425 393.832 282.366C394.049 282.779 394.134 284.243 394.104 286.335C389.232 285.948 384.16 285.742 384.16 285.742C384.306 285.918 384.397 286.133 384.421 286.36L383.656 286.189L382.544 285.918L391.517 272.276L391.542 272.306ZM373.767 300.575L382.197 301.913L382.906 302.024C382.665 303.338 382.518 304.667 382.469 306.003C382.469 306.128 382.66 306.279 382.932 306.455C382.814 307.119 382.758 307.793 382.766 308.467C382.901 309.136 386.842 310.575 391.361 311.772C391.301 312.013 391.241 312.245 391.18 312.461C387.189 310.364 380.898 309.383 380.174 307.823C379.449 306.264 358.03 298.769 358.03 298.769C358.03 298.769 357.25 298.357 355.901 297.703L361.538 298.769L363.088 298.613C366.602 299.492 370.169 300.144 373.767 300.565V300.575Z" fill="url(#paint0_linear)"/>
<path d="M491.682 354.512C491.682 354.512 488.33 374.748 471.314 377.741C454.299 380.734 397.506 380.135 397.506 380.135C397.506 380.135 365.036 375.467 353.295 348.044C341.554 320.62 334.005 309.72 344.07 309.242C354.135 308.764 408.412 327.566 411.507 327.803C414.602 328.039 494.676 286.129 491.682 354.512Z" fill="#434175"/>
<path opacity="0.05" d="M491.682 354.512C491.682 354.512 488.33 374.748 471.314 377.741C454.299 380.734 397.506 380.135 397.506 380.135C397.506 380.135 365.036 375.467 353.295 348.044C341.554 320.62 334.005 309.72 344.07 309.242C354.135 308.764 408.412 327.566 411.507 327.803C414.602 328.039 494.676 286.129 491.682 354.512Z" fill="black"/>
<path d="M339.374 377.022C339.374 377.022 341.07 381.488 345.736 381.805C346.42 381.853 347.108 381.816 347.784 381.695C354.014 380.618 368.634 378.103 373.782 379.059C376.883 379.637 382.615 378.782 386.696 378.013C389.414 377.51 391.397 377.007 391.397 377.007C391.397 377.007 386.606 361.081 386.002 360.604C385.398 360.126 364.437 347.551 364.437 347.551L347.829 346.359H347.779C347.779 346.359 344.704 346.565 342.152 349.663C340.396 351.781 338.891 355.262 338.791 360.966C338.559 374.984 339.374 377.022 339.374 377.022Z" fill="#2A2840"/>
<path opacity="0.05" d="M339.374 377.022C339.374 377.022 341.07 381.488 345.736 381.805C344.099 379.702 342.586 377.506 341.206 375.226L341.292 363.612C340.552 354.915 344.624 349.346 347.834 346.374H347.784C347.784 346.374 339.037 346.967 338.796 360.961C338.554 374.954 339.374 377.022 339.374 377.022Z" fill="black"/>
<path opacity="0.1" d="M411.406 351.635L426.861 339.563L451.184 315.61C451.184 315.61 448.557 315.484 444.596 315.313C443.59 315.942 440.847 317.919 440.746 320.343C440.626 323.271 434.169 320.544 430.817 322.219C427.465 323.894 411.049 344.895 408.17 344.759C405.292 344.623 403.022 343.3 401.819 345.337C401.819 345.383 401.764 345.423 401.734 345.468L411.406 351.635Z" fill="black"/>
<path opacity="0.1" d="M342.157 349.673C342.706 349.94 343.26 350.176 343.828 350.438C355.574 355.468 370.068 366.031 371.15 367.922C371.805 369.089 380.209 374.19 386.696 378.013C389.414 377.51 391.397 377.007 391.397 377.007C391.397 377.007 386.606 361.081 386.002 360.604C385.398 360.126 364.437 347.551 364.437 347.551L347.829 346.359H347.779C347.779 346.359 344.709 346.575 342.157 349.673Z" fill="black"/>
<path d="M309.566 315.348C311.121 319.181 324.161 333.914 324.161 333.914C324.161 333.914 332.424 344.689 344.171 349.719C355.917 354.749 370.411 365.312 371.488 367.203C372.182 368.435 381.553 374.069 388.136 377.942L389.61 378.802L392.881 380.699L394.613 381.705C394.613 381.705 398.639 378.485 402.619 375.246C406.6 372.007 410.485 368.833 410.551 368.652C410.667 368.294 412.222 364.22 411.864 363.984C411.678 363.858 410.858 362.198 409.348 360.277C407.737 358.144 405.645 356.421 403.243 355.247C397.708 352.732 395.337 347.007 395.337 347.007C395.337 347.007 394.834 346.625 394.014 346.122C392.594 345.227 390.315 343.939 388.629 343.723C385.987 343.391 381.08 338.004 381.08 338.004C381.08 338.004 377.723 335.846 376.405 333.094C375.146 330.469 356.566 317.712 354.845 316.535L399.892 345.448L410.672 352.374L426.127 340.302L450.454 316.349C450.454 316.349 447.183 316.188 442.402 315.987C430.581 315.484 409.585 314.674 406.932 315.273C404.773 315.776 402.546 315.92 400.34 315.7C400.34 315.7 394.361 315.972 390.405 313.885C386.45 311.797 380.214 310.821 379.495 309.277C378.775 307.733 357.567 300.298 357.567 300.298C357.567 300.298 328.695 284.972 318.389 294.076C308.082 303.181 308.006 311.52 309.566 315.348Z" fill="#434175"/>
<path d="M402.66 227.453L406.374 239.787L411.165 267.568L428.779 268.765L433.877 260.315L438.985 251.879C438.985 251.879 442.156 240.652 444.435 229.792C446.448 220.185 447.767 210.859 445.573 209.848C443.63 208.948 442.352 205.714 441.547 202.233C441.441 201.805 441.345 201.368 441.255 200.93C440.668 197.983 440.278 195 440.087 192.002C440.087 192.002 403.183 190.09 408.336 205.296C409.256 207.894 409.726 210.629 409.725 213.384C409.72 214.072 409.678 214.759 409.6 215.442C409.337 217.815 408.585 220.108 407.391 222.175C406.196 224.243 404.585 226.04 402.66 227.453Z" fill="#EE8E9E"/>
<path d="M394.99 225.416L396.308 246.371L399.303 264.213L402.659 272.477L405.654 317.687C405.654 317.687 434.546 321.027 441.572 317.627C442.078 317.411 442.518 317.064 442.845 316.621C451.33 303.83 448.547 266.728 448.547 266.728L451.783 242.77L449.624 230.336L444.415 229.782L440.389 229.355C440.389 229.355 439.483 230.471 438.175 232.197C434.622 236.885 428.109 246.105 428.527 249.953C429.121 255.224 427.807 260.611 425.769 261.451C423.731 262.291 422.055 263.725 421.698 262.291C421.341 260.858 420.978 260.496 421.335 258.459C421.693 256.421 419.775 250.194 419.775 250.194C419.775 250.194 416.544 242.891 416.756 239.777C416.967 236.663 416.398 233.067 415.437 232.232C414.476 231.397 413.163 230.552 414.239 226.699C415.316 222.846 409.514 215.406 409.514 215.406L394.99 225.416Z" fill="#E3E8F4"/>
<path opacity="0.1" d="M433.152 277.754L434.35 313.563L441.27 317.396C441.776 317.179 442.216 316.832 442.543 316.39C451.033 303.578 448.25 266.481 448.25 266.481L451.486 242.528L449.327 230.099L444.113 229.546C446.126 219.939 447.445 210.613 445.256 209.602C443.308 208.701 442.03 205.467 441.199 201.986L437.475 227.338C437.475 227.338 437.787 229.621 437.898 231.975C437.984 233.726 437.953 235.496 437.596 236.437C436.756 238.595 437.354 242.428 437.354 242.428C435.195 246.231 434.118 253.278 433.59 260.083C432.88 269.132 433.152 277.754 433.152 277.754Z" fill="black"/>
<path d="M441.315 201.433C441.315 201.433 447.354 202.182 449.267 204.697C451.179 207.212 456.217 207.56 456.217 207.56C456.217 207.56 461.969 209.476 461.848 209.954C461.727 210.432 463.524 211.156 467.122 212.112C470.721 213.067 476.684 216.543 476.684 217.383C476.684 218.223 486.151 227.559 486.151 228.52C486.151 229.48 489.029 233.047 488.667 239.415C488.305 245.783 487.947 253.786 489.387 255.104C490.826 256.421 489.387 261.572 489.387 261.572C489.005 262.135 488.795 262.797 488.781 263.477C488.768 264.158 488.952 264.827 489.311 265.405C490.509 267.563 489.075 276.547 489.075 276.547L489.19 285.887C489.19 285.887 487.872 291.752 489.432 291.994C490.992 292.235 489.19 294.866 489.19 294.866C489.19 294.866 487.872 299.66 489.553 301.812C491.234 303.965 491.707 313.19 491.707 313.19L517.373 350.413C517.373 350.413 517.735 357.238 509.588 357.118C501.44 356.997 501.535 358.677 501.797 360.231C502.059 361.786 499.522 363.466 499.522 363.466C499.522 363.466 496.286 365.141 498.204 367.178C500.121 369.215 505.632 373.883 496.528 376.996C495.451 375.518 494.564 373.909 493.891 372.208C493.118 370.095 492.478 367.937 491.973 365.744C491.973 365.744 491.133 356.64 489.457 355.443C487.781 354.246 488.018 348.496 488.018 348.496C488.018 348.496 490.413 343.828 487.062 341.912C483.71 339.995 435.009 313.075 435.009 313.075L433.811 277.266C433.811 277.266 432.971 250.803 438.004 241.94C438.004 241.94 437.405 238.107 438.245 235.954C439.086 233.801 438.124 226.85 438.124 226.85L441.315 201.433Z" fill="#2A2840"/>
<path opacity="0.1" d="M409.912 215.799C409.912 215.799 397.869 213.319 394.633 214.994C391.397 216.669 385.071 218.012 384.064 218.948C383.058 219.883 380.707 219.189 378.553 224.818C376.399 230.446 376.153 236.191 373.4 238.826C370.647 241.462 369.208 243.258 369.087 245.174C368.966 247.091 369.444 247.569 368.367 248.192C367.29 248.816 365.73 251.306 366.208 252.267C366.686 253.227 391.175 274.273 391.175 274.273C391.175 274.273 392.378 282.321 393.455 284.333C394.532 286.345 392.257 314.393 389.862 316.309C387.466 318.226 406.036 318.049 406.036 318.049C406.036 318.049 406.872 299.665 407.592 298.704C408.311 297.743 407.088 278.081 407.088 278.081C407.088 278.081 406.967 261.316 408.528 256.884C410.088 252.453 409.912 237.74 409.912 237.74C409.912 237.74 411.291 228.902 412.966 226.84C414.642 224.777 409.912 215.799 409.912 215.799Z" fill="black"/>
<path d="M409.554 215.442C409.554 215.442 397.506 212.962 394.27 214.637C391.034 216.312 384.708 217.63 383.727 218.59C382.745 219.551 380.375 218.827 378.191 224.455C376.007 230.084 375.795 235.833 373.037 238.469C370.28 241.105 368.845 242.901 368.725 244.817C368.604 246.734 369.087 247.211 368.01 247.81C366.933 248.409 365.373 250.924 365.851 251.879C366.329 252.835 390.772 273.916 390.772 273.916C390.772 273.916 391.97 281.964 393.047 283.976C394.124 285.988 391.849 314.03 389.454 315.947C387.058 317.863 405.629 317.687 405.629 317.687C405.629 317.687 406.469 299.302 407.189 298.347C407.908 297.391 406.686 277.724 406.686 277.724C406.686 277.724 406.57 260.958 408.125 256.527C409.68 252.096 409.509 237.363 409.509 237.363C409.509 237.363 410.888 228.525 412.559 226.467C414.229 224.41 409.554 215.442 409.554 215.442Z" fill="#2A2840"/>
<path opacity="0.1" d="M408.286 205.296C409.206 207.894 409.676 210.629 409.675 213.384C415.567 215.129 421.874 214.85 427.589 212.593C433.304 210.335 438.098 206.229 441.204 200.93C440.617 197.983 440.227 195 440.037 192.002C440.037 192.002 403.138 190.09 408.286 205.296Z" fill="black"/>
<path d="M390.078 186.373C390.084 193.398 392.788 200.153 397.63 205.244C402.473 210.335 409.086 213.375 416.105 213.736C423.124 214.098 430.015 211.753 435.355 207.185C440.695 202.618 444.078 196.177 444.806 189.19C445.534 182.202 443.552 175.202 439.268 169.633C434.984 164.064 428.725 160.351 421.782 159.258C414.839 158.166 407.741 159.779 401.953 163.764C396.164 167.748 392.126 173.801 390.672 180.674C390.276 182.548 390.076 184.458 390.078 186.373Z" fill="#EE8E9E"/>
<path d="M372.464 249.842L365.876 251.879C365.876 251.879 366.475 254.274 364.558 255.471C362.64 256.668 362.882 259.067 362.882 259.067C362.882 259.067 362.162 261.698 360.486 262.296C358.81 262.895 357.728 266.824 357.728 266.824L352.218 273.171C352.218 273.171 350.179 274.846 350.542 275.686C350.904 276.526 348.383 276.763 348.383 276.763L349.701 298.1L361.085 300.258L368.131 299.539L373.883 297.381L378.916 294.363L381.211 288.543L391.276 273.217L372.464 249.842Z" fill="#2A2840"/>
<path d="M350.059 278.483C350.059 278.483 335.464 257.402 324.538 268.78C313.613 280.158 328.972 298.598 332.565 298C336.159 297.401 353.295 296.445 353.295 296.445L350.059 278.483Z" fill="#EE8E9E"/>
<path d="M333.356 263.795L319.836 275.984C317.231 278.332 317.024 282.346 319.374 284.949L334.394 301.593C336.743 304.196 340.759 304.403 343.364 302.055L356.884 289.866C359.489 287.518 359.696 283.504 357.346 280.901L342.326 264.257C339.977 261.654 335.961 261.447 333.356 263.795Z" fill="#30374E"/>
<path opacity="0.1" d="M333.356 263.795L319.836 275.984C317.231 278.332 317.024 282.346 319.374 284.949L334.394 301.593C336.743 304.196 340.759 304.403 343.364 302.055L356.884 289.866C359.489 287.518 359.696 283.504 357.346 280.901L342.326 264.257C339.977 261.654 335.961 261.447 333.356 263.795Z" fill="black"/>
<path d="M333.768 262.059L320.247 274.248C317.643 276.596 317.436 280.61 319.785 283.214L334.805 299.857C337.155 302.46 341.171 302.667 343.775 300.319L357.296 288.13C359.9 285.782 360.107 281.768 357.758 279.165L342.738 262.521C340.389 259.918 336.373 259.711 333.768 262.059Z" fill="#30374E"/>
<path d="M338.388 288.88C342.16 288.88 345.217 285.824 345.217 282.054C345.217 278.285 342.16 275.229 338.388 275.229C334.616 275.229 331.559 278.285 331.559 282.054C331.559 285.824 334.616 288.88 338.388 288.88Z" fill="white"/>
<path opacity="0.1" d="M338.388 288.88C342.16 288.88 345.217 285.824 345.217 282.054C345.217 278.285 342.16 275.229 338.388 275.229C334.616 275.229 331.559 278.285 331.559 282.054C331.559 285.824 334.616 288.88 338.388 288.88Z" fill="black"/>
<path d="M338.77 288.015C342.542 288.015 345.6 284.959 345.6 281.189C345.6 277.42 342.542 274.364 338.77 274.364C334.999 274.364 331.941 277.42 331.941 281.189C331.941 284.959 334.999 288.015 338.77 288.015Z" fill="white"/>
<path d="M340.598 282.895C340.477 298.704 373.189 302.054 373.189 302.054L381.543 303.382L385.287 303.975L386.847 288.543C386.847 288.543 385.131 288.287 382.987 287.789C379.822 287.049 375.72 285.777 374.86 283.991C373.425 280.998 340.713 267.09 340.598 282.895Z" fill="#EE8E9E"/>
<path opacity="0.1" d="M390.672 180.674C391.427 180.73 392.138 181.046 392.685 181.569C393.611 182.55 393.661 184.291 394.864 184.894C395.314 185.09 395.811 185.148 396.293 185.06C399.479 184.608 401.326 181.036 404.381 180.03C406.122 179.467 408.039 179.834 409.74 180.488C410.424 180.702 411.038 181.097 411.517 181.63C412.523 182.953 411.824 184.899 412.297 186.504C412.956 188.727 415.614 189.612 417.913 189.904C420.213 190.196 422.805 190.357 424.34 192.092C425.427 193.325 425.704 195.11 425.482 196.725C425.347 197.289 425.347 197.876 425.482 198.44C426.117 200.236 429.227 199.949 430.037 198.551C430.631 197.52 430.45 196.665 431.849 196.378C432.795 196.182 433.907 196.579 434.783 196.881C437.222 197.722 439.793 198.117 442.372 198.048C444.003 194.549 444.876 190.746 444.936 186.886C444.995 183.027 444.239 179.198 442.717 175.651C441.194 172.104 438.94 168.918 436.101 166.301C433.262 163.684 429.902 161.696 426.242 160.466C422.582 159.236 418.703 158.792 414.859 159.163C411.015 159.534 407.292 160.711 403.935 162.619C400.578 164.526 397.661 167.12 395.375 170.232C393.09 173.343 391.487 176.901 390.672 180.674Z" fill="black"/>
<path d="M425.467 197.716C425.332 197.152 425.332 196.564 425.467 196.001C425.684 194.376 425.412 192.595 424.325 191.368C422.815 189.632 420.198 189.466 417.898 189.18C415.598 188.893 412.941 188.008 412.282 185.785C411.809 184.18 412.524 182.228 411.502 180.905C411.026 180.372 410.413 179.979 409.73 179.769C408.024 179.11 406.107 178.763 404.366 179.306C401.311 180.312 399.464 183.893 396.278 184.336C395.796 184.423 395.298 184.365 394.849 184.17C393.646 183.566 393.596 181.826 392.67 180.85C391.215 179.311 388.453 180.302 386.671 179.16C385.508 178.41 385.061 176.957 384.738 175.614C384.104 173.008 383.596 170.277 384.205 167.671C385.247 163.215 389.238 160.161 391.754 156.359C394.124 152.813 395.453 148.311 399.016 145.977C402.579 143.643 407.154 144.161 411.17 145.353C413.052 145.911 414.914 146.606 416.862 146.862C420.103 147.259 423.354 146.359 426.615 146.269C431.221 146.12 435.748 147.494 439.493 150.177C440.337 150.729 441.054 151.454 441.597 152.305C442.246 153.451 442.332 154.82 442.528 156.117C442.909 158.593 443.763 160.972 445.044 163.124C446.051 164.809 447.314 166.338 448.225 168.079C449.136 169.819 449.669 171.876 449.085 173.748C448.779 174.754 448.17 175.624 447.943 176.635C447.41 178.974 448.95 181.207 450.001 183.365C451.02 185.333 451.503 187.535 451.4 189.748C451.342 190.85 451.057 191.929 450.563 192.916C450.07 193.903 449.378 194.779 448.532 195.487C446.836 196.815 444.606 197.258 442.458 197.328C439.828 197.417 437.205 197.023 434.717 196.167C433.837 195.865 432.704 195.467 431.783 195.664C430.384 195.95 430.565 196.805 429.972 197.836C429.207 199.245 426.102 199.511 425.467 197.716Z" fill="#434175"/>
<path opacity="0.1" d="M410.687 352.354L426.142 340.282L450.469 316.329C450.469 316.329 447.198 316.168 442.417 315.967C441.547 316.852 440.772 317.979 440.721 319.237C440.6 322.164 434.144 319.443 430.792 321.118C427.44 322.793 411.024 343.788 408.145 343.652C405.266 343.517 402.997 342.194 401.794 344.231C401.768 344.278 401.74 344.323 401.708 344.367C401.23 344.912 400.59 345.291 399.882 345.448L410.687 352.354Z" fill="black"/>
<path d="M379.535 351.514L387.3 376.292L388.518 380.186L392.217 379.18L400.37 376.941L436.685 366.972C436.685 366.972 443.509 366.881 449.77 363.486C456.69 359.723 464.495 357.832 472.336 358.566C477.137 359.014 482.477 356.947 486.931 348.768C486.931 348.768 496.996 319.091 471.591 310.54C446.187 301.988 444.979 315.067 444.979 315.067C444.979 315.067 444.848 315.137 444.637 315.278C443.63 315.907 440.887 317.883 440.787 320.308C440.666 323.235 434.209 320.509 430.857 322.184C427.506 323.859 411.089 344.86 408.21 344.724C405.332 344.588 403.062 343.265 401.859 345.302C401.859 345.347 401.804 345.388 401.774 345.433C400.888 346.655 398.221 346.942 396.454 346.987C395.493 347.017 394.794 346.987 394.794 346.987L394.567 347.058L392.685 347.581L379.535 351.514Z" fill="#434175"/>
<path opacity="0.1" d="M381.543 303.382L385.287 303.975L386.847 288.543C386.847 288.543 385.131 288.287 382.987 287.789C383.556 289.926 382.267 298.261 381.543 303.382Z" fill="black"/>
<path opacity="0.1" d="M479.518 231.201C479.518 231.201 490.66 227.966 487.902 259.585C485.144 291.204 464.541 311.178 464.541 311.178C464.541 311.178 440.817 321.596 430.153 319.921C419.489 318.246 411.703 317.909 411.703 317.909C408.347 316.213 404.674 315.235 400.918 315.037C394.924 314.795 382.348 311.083 382.106 309.886C381.865 308.689 385.221 291.083 383.782 289.766C383.782 289.766 400.556 290.455 402.237 291.667C403.918 292.879 406.308 292.009 408.105 291.667C409.901 291.325 415.417 286.531 426.318 290.726C426.318 290.726 430.032 291.083 431.471 290.128C432.911 289.172 435.215 289.886 435.215 289.886C435.215 289.886 437.475 289.046 437.822 288.543C438.17 288.04 441.053 288.543 441.053 288.543C441.225 288.627 441.412 288.671 441.603 288.673C441.793 288.675 441.982 288.634 442.155 288.553C442.327 288.473 442.48 288.355 442.601 288.207C442.722 288.06 442.809 287.888 442.855 287.703C443.231 286.723 443.801 285.828 444.531 285.073C444.531 285.073 447.767 266.869 453.876 260.043C453.876 260.043 455.673 258.484 455.195 256.567C454.717 254.651 465.154 227.363 479.518 231.201Z" fill="black"/>
<path d="M479.246 228.766C479.246 228.766 490.388 225.532 487.635 257.151C484.882 288.77 464.244 308.764 464.244 308.764C464.244 308.764 440.52 319.181 429.856 317.506C419.192 315.831 411.406 315.469 411.406 315.469C408.05 313.772 404.377 312.794 400.621 312.597C394.632 312.355 382.051 308.643 381.809 307.446C381.568 306.249 384.925 288.644 383.49 287.326C383.49 287.326 400.264 288.015 401.94 289.227C403.616 290.44 406.016 289.569 407.813 289.227C409.61 288.885 415.12 284.097 426.026 288.287C426.026 288.287 429.74 288.644 431.174 287.688C432.609 286.732 434.924 287.447 434.924 287.447C434.924 287.447 437.168 286.607 437.525 286.129C437.883 285.651 440.761 286.129 440.761 286.129C440.932 286.213 441.119 286.257 441.309 286.259C441.499 286.261 441.687 286.22 441.859 286.14C442.032 286.06 442.184 285.943 442.305 285.796C442.426 285.65 442.512 285.478 442.558 285.294C442.934 284.312 443.504 283.415 444.234 282.658C444.234 282.658 447.47 264.454 453.579 257.629C453.579 257.629 455.376 256.069 454.898 254.158C454.42 252.246 464.842 224.933 479.246 228.766Z" fill="#2A2840"/>
<path opacity="0.1" d="M392.685 347.581L408.507 366.695C408.568 366.64 408.608 366.599 408.608 366.584C408.729 366.222 410.284 362.153 409.927 361.911C409.569 361.67 406.811 355.684 401.301 353.169C397.934 351.66 395.73 348.899 394.527 347.007L392.685 347.581Z" fill="black"/>
<path opacity="0.1" d="M392.901 380.699L394.633 381.705C394.633 381.705 398.659 378.485 402.639 375.246C406.62 372.007 410.505 368.833 410.571 368.652C410.687 368.295 412.242 364.22 411.884 363.984C411.698 363.858 410.878 362.198 409.368 360.277C398.639 357.259 405.468 364.718 406.379 365.06C406.379 365.06 393.294 362.042 392.599 376.282C392.504 377.761 392.606 379.246 392.901 380.699Z" fill="black"/>
<path d="M406.132 386.725L408.412 388.042L431.562 388.641C431.562 388.641 436.524 391.659 439.745 392.575C440.125 392.693 440.513 392.779 440.908 392.831C443.05 393.004 445.202 393.045 447.349 392.952C449.121 392.907 450.495 392.831 450.495 392.831C450.495 392.831 449.398 363.657 448.572 360.639C448.18 359.17 446.242 359.492 444.33 360.226C442.893 360.809 441.507 361.51 440.188 362.324C440.188 362.324 430.364 363.275 428.804 364.12C427.244 364.965 422.815 363.617 420.057 364.12C417.3 364.623 412.393 360.875 412.393 360.875C398.971 356.449 406.52 364.708 407.476 365.07C407.476 365.07 394.421 362.052 393.702 376.292C392.982 390.532 406.132 386.725 406.132 386.725Z" fill="#2A2840"/>
<path d="M439.564 375.467C439.815 381.503 444.521 388.993 447.324 392.952C449.096 392.907 450.469 392.831 450.469 392.831C450.469 392.831 449.372 363.657 448.547 360.639C448.154 359.17 446.217 359.492 444.305 360.226C442.005 364.552 439.363 370.603 439.564 375.467Z" fill="#2A2840"/>
<path opacity="0.1" d="M439.564 375.467C439.815 381.503 444.521 388.993 447.324 392.952C449.096 392.907 450.469 392.831 450.469 392.831C450.469 392.831 449.372 363.657 448.547 360.639C448.154 359.17 446.217 359.492 444.305 360.226C442.005 364.552 439.363 370.603 439.564 375.467Z" fill="black"/>
<path opacity="0.05" d="M435.608 376.267C437.198 382.092 437.183 388.626 439.72 392.575C440.099 392.693 440.488 392.779 440.882 392.831C443.025 393.004 445.176 393.045 447.324 392.952C449.095 392.907 450.469 392.831 450.469 392.831C450.469 392.831 449.372 363.657 448.547 360.639C448.154 359.17 446.217 359.492 444.304 360.226C442.868 360.809 441.482 361.51 440.163 362.324C440.163 362.324 433.575 368.813 435.608 376.267Z" fill="black"/>
<path opacity="0.1" d="M355.831 317.184C355.831 317.184 367.315 320.912 377.049 334.151L355.831 317.184Z" fill="black"/>
<g opacity="0.1">
<path opacity="0.1" d="M449.166 173.486C449.147 173.571 449.124 173.655 449.096 173.738C448.986 174.081 448.853 174.417 448.698 174.744C448.816 174.311 448.973 173.89 449.166 173.486Z" fill="black"/>
<path opacity="0.1" d="M384.185 167.676C384.384 166.837 384.683 166.025 385.076 165.257C385.015 165.463 384.95 165.669 384.9 165.881C384.291 168.486 384.799 171.218 385.433 173.823C385.76 175.166 386.203 176.62 387.365 177.369C389.152 178.511 391.895 177.515 393.364 179.054C394.29 180.035 394.341 181.776 395.549 182.379C395.998 182.575 396.495 182.633 396.978 182.545C400.158 182.092 402.01 178.521 405.065 177.515C406.806 176.952 408.719 177.319 410.425 177.978C411.108 178.189 411.72 178.582 412.196 179.115C413.203 180.438 412.503 182.389 412.976 183.989C413.636 186.212 416.293 187.097 418.593 187.384C420.893 187.671 423.485 187.837 425.02 189.577C426.107 190.805 426.383 192.595 426.162 194.21C426.029 194.774 426.029 195.361 426.162 195.925C426.796 197.721 429.906 197.434 430.691 196.036C431.285 195.005 431.109 194.149 432.508 193.863C433.449 193.667 434.561 194.064 435.437 194.366C437.924 195.223 440.548 195.616 443.177 195.528C445.326 195.452 447.561 195.025 449.252 193.687C450.024 193.071 450.659 192.3 451.114 191.423C450.719 193.019 449.819 194.445 448.547 195.487C446.856 196.815 444.627 197.258 442.473 197.328C439.845 197.418 437.223 197.024 434.737 196.167C433.857 195.865 432.724 195.467 431.803 195.664C430.404 195.95 430.581 196.805 429.992 197.837C429.176 199.255 426.071 199.522 425.432 197.726C425.299 197.162 425.299 196.575 425.432 196.011C425.654 194.386 425.382 192.605 424.295 191.378C422.755 189.643 420.163 189.477 417.863 189.19C415.563 188.903 412.906 188.018 412.252 185.795C411.774 184.19 412.493 182.238 411.472 180.915C410.993 180.383 410.379 179.99 409.695 179.779C407.989 179.12 406.077 178.773 404.335 179.316C401.276 180.322 399.429 183.903 396.248 184.346C395.766 184.434 395.268 184.376 394.819 184.18C393.611 183.576 393.561 181.836 392.635 180.86C391.18 179.321 388.422 180.312 386.641 179.17C385.473 178.421 385.03 176.967 384.703 175.624C384.079 173.013 383.571 170.282 384.185 167.676Z" fill="black"/>
</g>
<path opacity="0.1" d="M451.023 263.524C448.829 266.486 446.322 269.228 444.38 272.362C442.437 275.495 441.063 279.152 441.471 282.814C443.484 280.752 444.4 277.905 445.668 275.319C447.812 270.943 451.023 267.231 453.72 263.207C454.224 262.437 457.55 258.001 455.874 257.79C454.495 257.613 451.773 262.513 451.023 263.524Z" fill="black"/>
</g>
<defs>
<linearGradient id="paint0_linear" x1="414.018" y1="392.102" x2="414.018" y2="141.832" gradientUnits="userSpaceOnUse">
<stop stop-color="#808080" stop-opacity="0.25"/>
<stop offset="0.54" stop-color="#808080" stop-opacity="0.12"/>
<stop offset="1" stop-color="#808080" stop-opacity="0.1"/>
</linearGradient>
<clipPath id="clip0">
<rect width="574" height="396" fill="white"/>
</clipPath>
</defs>
</svg>
