<svg width="628" height="439" viewBox="0 0 628 439" fill="none" xmlns="http://www.w3.org/2000/svg">
<path fill-rule="evenodd" clip-rule="evenodd" d="M273.043 3.20907C338.559 15.3774 348.072 80.4781 402.953 108.382C457.964 136.352 546.432 123.814 586.23 162.448C628.939 203.908 639.782 263.86 611.768 311.091C584.274 357.446 511.967 382.062 445.232 400.17C390.34 415.064 331.502 398.233 273.043 403C202.524 408.75 129.694 456.798 69.0995 430.84C9.55223 405.331 27.4491 340.83 15.3622 292.612C5.21697 252.14 -6.54296 212.971 4.36474 172.597C16.6272 127.208 32.3045 79.5106 81.2759 48.6366C132.722 16.2025 206.186 -9.20825 273.043 3.20907Z" fill="#C4C4C4"/>
</svg>
